<svg width="60" height="59" viewBox="0 0 60 59" fill="none" xmlns="http://www.w3.org/2000/svg">
<path d="M44.9869 33.4253C43.4072 32.1091 41.491 31.2925 39.4463 31.0647L34.1803 30.4797L33.1041 29.4034L48.0403 8.86656L41.7188 0.4375H18.2813L11.9597 8.86656L26.896 29.4034L25.8197 30.4797L20.5538 31.0647C18.5091 31.2916 16.5928 32.1081 15.0131 33.4253C12.6216 35.4184 11.25 38.3472 11.25 41.4597V48.2481C11.2463 49.9994 11.925 51.6466 13.1616 52.885C14.4019 54.1291 16.0538 54.8125 17.8125 54.8125H18.75V58.5625H41.25V54.8125H44.0625C46.6472 54.8125 48.75 52.7097 48.75 50.125V41.4597C48.75 38.3472 47.3784 35.4184 44.9869 33.4253ZM30 47.3125V45.4375C31.0341 45.4375 31.875 46.2784 31.875 47.3125V49.1875H34.6875C35.2041 49.1875 35.625 49.6075 35.625 50.125V52C35.625 52.5175 35.2041 52.9375 34.6875 52.9375H28.125V49.1875C29.1591 49.1875 30 48.3466 30 47.3125ZM29.8106 28.5625L25.5497 9.8125H34.4513L30.1903 28.5625H29.8106ZM26.25 7.9375L30 2.93687L33.75 7.9375H26.25ZM36.3731 9.8125H45.0338L32.4366 27.1337L36.3731 9.8125ZM37.5 7.9375L41.25 2.93687L45 7.9375H37.5ZM35.625 7.31312L31.875 2.3125H39.375L35.625 7.31312ZM24.375 7.31312L20.625 2.3125H28.125L24.375 7.31312ZM22.5 7.9375H15L18.75 2.93687L22.5 7.9375ZM23.6269 9.8125L27.5635 27.1337L14.9663 9.8125H23.6269ZM31.4869 30.4375L32.4244 31.375L30.5494 33.25H29.4506L27.5756 31.375L28.5131 30.4375H31.4869ZM34.1906 34.4237C34.0163 36.1684 33.5747 37.8887 32.8988 39.5097L31.95 34.4997L34.0931 32.3566L34.3931 32.3903L34.1906 34.4237ZM30 43.5625C29.7938 43.5625 29.5988 43.6038 29.4122 43.6656L28.4288 42.0916C28.4138 42.0672 28.4006 42.0419 28.3856 42.0184L29.8247 35.125H30.1613L31.501 42.2041L30.6131 43.6244C30.4125 43.5916 30.21 43.5625 30 43.5625ZM28.0416 34.4922L27.0291 39.3428C26.3925 37.7706 25.9781 36.1084 25.8094 34.4237L25.606 32.3903L25.906 32.3566L28.0416 34.4922ZM23.9438 34.6103C24.0563 35.7334 24.2672 36.8481 24.5719 37.9375H23.1535C22.8272 37.0047 22.2085 35.0612 21.8466 32.8075L23.7422 32.5966L23.9438 34.6103ZM25.4363 40.3797C25.8356 41.3162 26.2997 42.2247 26.8388 43.0863L27.6956 44.4578C26.4966 43.6188 25.321 42.43 24.6085 41.6209L25.4363 40.3797ZM32.3644 44.4259C32.356 44.4184 32.3466 44.4109 32.3381 44.4044L33.1613 43.0872C33.7003 42.2247 34.1644 41.3172 34.5638 40.3806L35.3897 41.62C34.7841 42.3063 33.6235 43.5363 32.3644 44.4259ZM35.4281 37.9375C35.7328 36.8481 35.9438 35.7334 36.0563 34.6103L36.2578 32.5966L38.1535 32.8075C37.7916 35.0556 37.1728 37.0028 36.8456 37.9375H35.4281ZM14.4891 51.5613C13.6069 50.6772 13.1222 49.5025 13.125 48.25V41.4597C13.125 38.905 14.251 36.5012 16.2131 34.8662C17.3081 33.9531 18.6056 33.3541 19.9903 33.0719C20.5247 36.4319 21.5803 39.1019 21.6291 39.2238L21.8653 39.8125H23.5613L22.2778 41.7381L22.7063 42.2734C22.8253 42.4225 25.4531 45.6737 28.126 46.8644V47.3125H20.626V40.9712C20.626 39.3213 19.7091 37.8372 18.2325 37.0984L17.3935 38.7756C18.2297 39.1947 18.75 40.0356 18.75 40.9712V47.5206C17.446 47.8319 16.2469 48.49 15.2747 49.4613L16.6003 50.7869C17.6325 49.7556 19.005 49.1875 20.4647 49.1875H26.25V52.9375H17.8125C16.5553 52.9375 15.3741 52.4491 14.4891 51.5613ZM46.875 50.125C46.875 51.6756 45.6131 52.9375 44.0625 52.9375H41.25V47.3125H45V45.4375H41.25V40.9712C41.25 40.0356 41.7703 39.1938 42.6066 38.7756L41.7675 37.0984C40.2919 37.8381 39.375 39.3222 39.375 40.9712V56.6875H20.625V54.8125H34.6875C36.2381 54.8125 37.5 53.5506 37.5 52V50.125C37.5 48.5744 36.2381 47.3125 34.6875 47.3125H33.75C33.75 46.8241 33.6497 46.36 33.4791 45.9325C35.5116 44.4859 37.2141 42.3737 37.2947 42.2734L37.7231 41.7381L36.4397 39.8125H38.1356L38.371 39.2228C38.4197 39.1009 39.4753 36.4309 40.0097 33.0709C41.3953 33.3541 42.6928 33.9522 43.7869 34.8653C45.7491 36.5013 46.875 38.905 46.875 41.4597V50.125Z" fill="#01C77F"/>
<path d="M49.6875 7.9375H59.0625V9.8125H49.6875V7.9375Z" fill="#01C77F"/>
<path d="M48.7784 2.86591L57.8347 0.437781L58.3203 2.24903L49.264 4.67716L48.7784 2.86591Z" fill="#01C77F"/>
<path d="M1.68677 2.25745L2.17239 0.446196L11.2286 2.87432L10.743 4.68557L1.68677 2.25745Z" fill="#01C77F"/>
<path d="M0.9375 7.9375H10.3125V9.8125H0.9375V7.9375Z" fill="#01C77F"/>
<path d="M1.68835 15.4926L10.7446 13.0644L11.2302 14.8757L2.17398 17.3038L1.68835 15.4926Z" fill="#01C77F"/>
<path d="M48.7863 14.8759L49.2719 13.0647L58.3282 15.4928L57.8425 17.304L48.7863 14.8759Z" fill="#01C77F"/>
</svg>
