<svg width="58" height="57" viewBox="0 0 58 57" fill="none" xmlns="http://www.w3.org/2000/svg">
<path d="M56.1875 40.6875H55.25V18.4781C55.2532 17.3708 55.0367 16.2739 54.613 15.2509C54.1893 14.2279 53.5668 13.2992 52.7816 12.5184L49.625 9.36187V1.3125C49.625 1.06386 49.5262 0.825403 49.3504 0.649587C49.1746 0.473772 48.9361 0.375 48.6875 0.375H1.8125C1.56386 0.375 1.3254 0.473772 1.14959 0.649587C0.973772 0.825403 0.875 1.06386 0.875 1.3125V25.6875C0.875 25.9361 0.973772 26.1746 1.14959 26.3504C1.3254 26.5262 1.56386 26.625 1.8125 26.625H2.75V35.0625C2.74356 36.8893 3.1044 38.6988 3.81109 40.3834C4.51778 42.0679 5.5559 43.5933 6.86375 44.8687L18.0153 56.3437C18.1027 56.4336 18.2072 56.5051 18.3226 56.5538C18.4381 56.6026 18.5622 56.6277 18.6875 56.6277C18.8128 56.6277 18.9369 56.6026 19.0524 56.5538C19.1678 56.5051 19.2723 56.4336 19.3597 56.3437L30.5066 44.8762C31.8161 43.6003 32.8556 42.0739 33.5631 40.3879C34.2707 38.702 34.6318 36.8909 34.625 35.0625V26.625H36.5V36C36.4998 36.8739 36.6748 37.7391 37.0148 38.5442C37.3547 39.3493 37.8526 40.0781 38.4791 40.6875H37.4375C37.1889 40.6875 36.9504 40.7863 36.7746 40.9621C36.5988 41.1379 36.5 41.3764 36.5 41.625V47.25C36.5 47.4986 36.5988 47.7371 36.7746 47.9129C36.9504 48.0887 37.1889 48.1875 37.4375 48.1875H56.1875C56.4361 48.1875 56.6746 48.0887 56.8504 47.9129C57.0262 47.7371 57.125 47.4986 57.125 47.25V41.625C57.125 41.3764 57.0262 41.1379 56.8504 40.9621C56.6746 40.7863 56.4361 40.6875 56.1875 40.6875ZM32.75 35.0625C32.754 36.6461 32.4392 38.2143 31.8244 39.6737C31.2097 41.1331 30.3075 42.4538 29.1716 43.5572L18.6875 54.3422L8.20344 43.5572L8.19406 43.5478C7.06061 42.445 6.16054 41.1255 5.5474 39.6678C4.93426 38.2101 4.62057 36.6439 4.625 35.0625V24.4622L18.6875 19.1887L32.75 24.4622V35.0625ZM19.0166 17.3091C18.9447 17.2871 18.8704 17.2739 18.7953 17.2697C18.1141 16.13 17.753 14.8277 17.75 13.5C17.7465 12.1222 18.1227 10.7701 18.8371 9.59199C19.5516 8.4139 20.5768 7.45539 21.8001 6.82163C23.0235 6.18787 24.3979 5.90337 25.7723 5.99932C27.1468 6.09528 28.4682 6.568 29.5917 7.36561C30.7152 8.16321 31.5972 9.25488 32.141 10.5208C32.6849 11.7867 32.8695 13.178 32.6746 14.542C32.4797 15.9059 31.9128 17.1898 31.0362 18.2528C30.1597 19.3158 29.0072 20.1167 27.7053 20.5678L19.0166 17.3091ZM34.0166 22.9341L30.1625 21.4894C31.7232 20.5338 32.9706 19.1428 33.7513 17.4876C34.5319 15.8324 34.8118 13.9852 34.5565 12.173C34.3012 10.3609 33.5218 8.66287 32.3141 7.28782C31.1065 5.91278 29.5234 4.92066 27.7594 4.4335C25.9953 3.94633 24.1274 3.98535 22.3853 4.54576C20.6431 5.10618 19.1028 6.16354 17.9537 7.58782C16.8045 9.0121 16.0967 10.7412 15.9173 12.5624C15.7379 14.3836 16.0946 16.2176 16.9437 17.8387L3.35844 22.9341C3.17963 23.0011 3.02555 23.1211 2.91681 23.2781C2.80808 23.4351 2.74988 23.6215 2.75 23.8125V2.25H47.75V23.5153L40.9531 17.1056C40.2394 16.4239 39.29 16.0441 38.303 16.0457C37.316 16.0473 36.3678 16.43 35.6562 17.1141C34.9563 17.8201 34.5636 18.774 34.5636 19.7681C34.5636 20.7623 34.9563 21.7162 35.6562 22.4222L37.9869 24.75H34.625V23.8125C34.6251 23.6215 34.5669 23.4351 34.4582 23.2781C34.3495 23.1211 34.1954 23.0011 34.0166 22.9341ZM38.375 36V26.625H39.8619L44.2747 31.0378L45.6003 29.7122L36.9847 21.0966C36.8113 20.9213 36.6742 20.7136 36.5811 20.4854C36.488 20.2571 36.4408 20.0128 36.4422 19.7663C36.4449 19.2685 36.6453 18.7921 36.9992 18.442C37.3532 18.0919 37.8317 17.8968 38.3295 17.8995C38.8273 17.9023 39.3037 18.1026 39.6537 18.4566L48.0444 26.37C48.1776 26.4956 48.3447 26.5795 48.525 26.6112C48.7054 26.6429 48.891 26.6211 49.0591 26.5486C49.2272 26.476 49.3704 26.3558 49.471 26.2027C49.5715 26.0497 49.6251 25.8706 49.625 25.6875V12.0131L51.4559 13.8441C52.0663 14.4512 52.5502 15.1734 52.8796 15.9689C53.209 16.7643 53.3774 17.6172 53.375 18.4781V40.6875H43.0625C41.8198 40.686 40.6283 40.1917 39.7496 39.3129C38.8708 38.4342 38.3765 37.2427 38.375 36ZM55.25 46.3125H38.375V42.5625H55.25V46.3125Z" fill="#01C77F"/>
<path d="M18.3265 21.0722L7.07654 25.7597C6.90577 25.8309 6.7599 25.9511 6.6573 26.1051C6.55471 26.2591 6.49997 26.44 6.49998 26.625V34.9285C6.4961 36.2834 6.76108 37.6257 7.27958 38.8775C7.79808 40.1294 8.55979 41.2659 9.52061 42.2213L18.0247 50.7253C18.2005 50.9011 18.4389 50.9998 18.6875 50.9998C18.9361 50.9998 19.1745 50.9011 19.3503 50.7253L27.8544 42.2213C28.8152 41.2659 29.5769 40.1294 30.0954 38.8775C30.6139 37.6257 30.8789 36.2834 30.875 34.9285V26.625C30.875 26.44 30.8203 26.2591 30.7177 26.1051C30.6151 25.9511 30.4692 25.8309 30.2984 25.7597L19.0484 21.0722C18.9341 21.0245 18.8114 20.9999 18.6875 20.9999C18.5636 20.9999 18.4409 21.0245 18.3265 21.0722ZM29 27.2503V34.9285C29.003 36.0371 28.7862 37.1353 28.362 38.1596C27.9378 39.1838 27.3147 40.1138 26.5287 40.8956L18.6875 48.7369L10.8462 40.8956C10.0602 40.1138 9.43713 39.1838 9.01295 38.1596C8.58876 37.1353 8.37192 36.0371 8.37498 34.9285V27.2503L18.6875 22.9528L29 27.2503Z" fill="#01C77F"/>
<path d="M4.625 5.0625V8.8125H6.5V6H9.3125V4.125H5.5625C5.31386 4.125 5.0754 4.22377 4.89959 4.39959C4.72377 4.5754 4.625 4.81386 4.625 5.0625Z" fill="#01C77F"/>
<path d="M44 8.8125H45.875V5.0625C45.875 4.81386 45.7762 4.5754 45.6004 4.39959C45.4246 4.22377 45.1861 4.125 44.9375 4.125H41.1875V6H44V8.8125Z" fill="#01C77F"/>
<path d="M16.0353 34.8357L14.7097 36.1613L18.0247 39.4754C18.2005 39.6511 18.4389 39.7499 18.6875 39.7499C18.9361 39.7499 19.1745 39.6511 19.3503 39.4754L27.305 31.5207L25.9793 30.1951L18.6875 37.4869L16.0353 34.8357Z" fill="#01C77F"/>
</svg>
