<svg width="61" height="61" viewBox="0 0 61 61" fill="none" xmlns="http://www.w3.org/2000/svg">
<g clip-path="url(#clip0)">
<path d="M59.5323 25.6613H53.7258C53.1904 25.6613 52.7581 26.0951 52.7581 26.6291V27.5968H29.5323C29.2747 27.5968 29.029 27.6984 28.848 27.8803L27.5968 29.1316L26.3455 27.8803C26.1645 27.6984 25.9188 27.5968 25.6613 27.5968H8.24194V26.6291C8.24194 26.0951 7.80957 25.6613 7.27419 25.6613H1.46774C0.932365 25.6613 0.5 26.0951 0.5 26.6291V49.8549C0.5 50.3888 0.932365 50.8226 1.46774 50.8226H7.27419C7.80957 50.8226 8.24194 50.3888 8.24194 49.8549V48.8871H16.0004C15.9976 48.9434 15.9839 48.9963 15.9839 49.0525C15.9839 51.0967 17.6462 52.7581 19.6885 52.7581C19.7514 52.7581 19.8104 52.7434 19.8723 52.7397C19.8695 52.8016 19.8548 52.8616 19.8548 52.9235C19.8548 54.9676 21.5172 56.6291 23.5595 56.6291C23.6223 56.6291 23.6814 56.6144 23.7433 56.6106C23.7405 56.6725 23.7258 56.7325 23.7258 56.7944C23.7258 58.8386 25.3882 60.5 27.4304 60.5C28.4204 60.5 29.3503 60.1149 30.0501 59.4142L30.5 58.9653L30.9498 59.4142C31.6497 60.1149 32.5787 60.5 33.5696 60.5C35.6118 60.5 37.2742 58.8386 37.2742 56.7944C37.2742 56.7316 37.2595 56.6725 37.2558 56.6106C37.3186 56.6144 37.3777 56.6291 37.4405 56.6291C39.4828 56.6291 41.1452 54.9676 41.1452 52.9235C41.1452 52.8606 41.1305 52.8016 41.1267 52.7397C41.1896 52.7434 41.2486 52.7581 41.3115 52.7581C43.3538 52.7581 45.0161 51.0967 45.0161 49.0525C45.0161 48.9963 45.0024 48.9424 44.9996 48.8871H52.7581V49.8549C52.7581 50.3888 53.1904 50.8226 53.7258 50.8226H59.5323C60.0676 50.8226 60.5 50.3888 60.5 49.8549V26.6291C60.5 26.0951 60.0676 25.6613 59.5323 25.6613ZM6.30645 48.8871H2.43548V27.5968H6.30645V48.8871ZM8.24194 29.5323H25.2606L29.0144 33.2851C29.3484 33.6201 29.5323 34.0643 29.5323 34.5364C29.5323 35.5131 28.7389 36.3065 27.7631 36.3065C27.2977 36.3065 26.8421 36.1179 26.5118 35.7876L22.4745 31.7513L21.1061 33.1197L21.8735 33.8871L13.1978 42.5628C12.498 43.2626 12.1129 44.1925 12.1129 45.1815C12.1129 45.8261 12.2929 46.4234 12.5831 46.9516H8.24194V29.5323ZM28.6817 58.0467C28.3514 58.376 27.8968 58.5645 27.4304 58.5645C26.4547 58.5645 25.6613 57.7712 25.6613 56.7944C25.6613 56.3224 25.8451 55.8773 26.1792 55.5432L26.629 55.0943L29.1316 57.5968L28.6817 58.0467ZM35.3387 56.7944C35.3387 57.7712 34.5453 58.5645 33.5696 58.5645C33.1041 58.5645 32.6486 58.376 32.3183 58.0457L27.1469 52.8762C26.8128 52.5412 26.629 52.097 26.629 51.625C26.629 50.6482 27.4224 49.8549 28.3982 49.8549C28.8636 49.8549 29.3191 50.0434 29.6494 50.3737L34.8208 55.5432C35.1549 55.8782 35.3387 56.3224 35.3387 56.7944ZM39.2097 52.9235C39.2097 53.9002 38.4163 54.6936 37.4405 54.6936C36.9751 54.6936 36.5196 54.505 36.1893 54.1747L31.0179 49.0053C30.6838 48.6702 30.5 48.2261 30.5 47.754C30.5 46.7773 31.2934 45.9839 32.2692 45.9839C32.7346 45.9839 33.1901 46.1724 33.5204 46.5027L38.6918 51.6722C39.0259 52.0072 39.2097 52.4514 39.2097 52.9235ZM41.3115 50.8226C40.8461 50.8226 40.3905 50.6341 40.0602 50.3038L34.8889 45.1343C34.5548 44.7993 34.371 44.3551 34.371 43.883C34.371 42.9063 35.1643 42.1129 36.1401 42.1129C36.6056 42.1129 37.0611 42.3015 37.3914 42.6318L42.5628 47.8013C42.8968 48.1363 43.0806 48.5805 43.0806 49.0525C43.0806 50.0292 42.2873 50.8226 41.3115 50.8226ZM38.2419 40.0121C38.2419 39.0353 39.0353 38.242 40.0111 38.242C40.4765 38.242 40.932 38.4305 41.2623 38.7608L46.4337 43.9303C46.7678 44.2653 46.9516 44.7095 46.9516 45.1815C46.9516 46.1583 46.1582 46.9516 45.1825 46.9516C44.717 46.9516 44.2615 46.7631 43.9312 46.4328L38.7598 41.2633C38.4257 40.9283 38.2419 40.4841 38.2419 40.0121ZM48.4169 46.9516C48.7071 46.4234 48.8871 45.8261 48.8871 45.1815C48.8871 44.1925 48.502 43.2626 47.8022 42.5618L42.6308 37.3924C41.931 36.6916 41.002 36.3065 40.0111 36.3065C37.9688 36.3065 36.3064 37.9679 36.3064 40.0121C36.3064 40.0749 36.3211 40.134 36.3249 40.1959C36.262 40.1921 36.203 40.1774 36.1401 40.1774C34.0978 40.1774 32.4355 41.8389 32.4355 43.883C32.4355 43.9459 32.4501 44.0049 32.4539 44.0668C32.3911 44.0631 32.332 44.0484 32.2692 44.0484C30.2269 44.0484 28.5645 45.7098 28.5645 47.754C28.5645 47.8168 28.5792 47.8759 28.5829 47.9378C28.5201 47.934 28.461 47.9194 28.3982 47.9194C26.3559 47.9194 24.6935 49.5808 24.6935 51.625C24.6935 52.3654 24.9104 53.0728 25.3121 53.6743L24.8107 54.1757C24.4804 54.505 24.0259 54.6936 23.5595 54.6936C22.5837 54.6936 21.7903 53.9002 21.7903 52.9235C21.7903 52.4514 21.9741 52.0063 22.3082 51.6722L24.41 49.5714L23.0416 48.2029L20.9398 50.3047C20.6095 50.6341 20.1549 50.8226 19.6885 50.8226C18.7127 50.8226 17.9194 50.0292 17.9194 49.0525C17.9194 48.5805 18.1032 48.1353 18.4372 47.8013L20.5391 45.7004L19.1706 44.3319L17.0688 46.4337C16.7385 46.7631 16.2839 46.9516 15.8175 46.9516C14.8418 46.9516 14.0484 46.1583 14.0484 45.1815C14.0484 44.7095 14.2322 44.2644 14.5663 43.9303L23.2419 35.2546L25.1434 37.1551C25.8432 37.8569 26.7722 38.242 27.7631 38.242C29.8054 38.242 31.4677 36.5805 31.4677 34.5364C31.4677 33.5474 31.0826 32.6174 30.3828 31.9167L28.9652 30.5L29.933 29.5323H52.7581V46.9516H48.4169ZM58.5645 48.8871H54.6935V27.5968H58.5645V48.8871Z" fill="#01C77F"/>
<path d="M30.5 19.8548C34.2344 19.8548 37.2742 16.816 37.2742 13.0807C37.2742 9.3453 34.2344 6.30646 30.5 6.30646C26.7656 6.30646 23.7258 9.3453 23.7258 13.0807C23.7258 16.816 26.7656 19.8548 30.5 19.8548ZM30.5 8.24194C33.1679 8.24194 35.3387 10.4127 35.3387 13.0807C35.3387 15.7486 33.1679 17.9194 30.5 17.9194C27.8321 17.9194 25.6613 15.7486 25.6613 13.0807C25.6613 10.4127 27.8321 8.24194 30.5 8.24194Z" fill="#01C77F"/>
<path d="M7.2742 15.9839C8.53396 15.9839 9.59857 15.1721 9.99928 14.0484H17.9194V15.0161C17.9194 15.5501 18.3517 15.9839 18.8871 15.9839H20.2593C20.4734 16.7215 20.7744 17.444 21.1623 18.1466L20.1384 19.1706C19.7599 19.5491 19.7599 20.1606 20.1384 20.5391L23.0416 23.4423C23.4201 23.8208 24.0315 23.8208 24.41 23.4423L25.434 22.4183C26.1367 22.8053 26.8592 23.1073 27.5968 23.3213V24.6935C27.5968 25.2275 28.0291 25.6613 28.5645 25.6613H32.4355C32.9709 25.6613 33.4032 25.2275 33.4032 24.6935V23.3232C34.155 23.1092 34.8827 22.8115 35.5788 22.4311L36.59 23.4423C36.9685 23.8208 37.5799 23.8208 37.9584 23.4423L40.5781 20.8226H45.1943C45.595 21.9463 46.6596 22.7581 47.9194 22.7581C49.5198 22.7581 50.8226 21.4553 50.8226 19.8548C50.8226 18.2544 49.5198 16.9516 47.9194 16.9516C46.6596 16.9516 45.595 17.7634 45.1943 18.8871H40.5781L39.8504 18.1594C40.2308 17.4634 40.5285 16.7357 40.7426 15.9839H42.1129C42.6483 15.9839 43.0806 15.5501 43.0806 15.0161V14.0484H51.0007C51.4014 15.1721 52.466 15.9839 53.7258 15.9839C55.3263 15.9839 56.629 14.6811 56.629 13.0806C56.629 11.4802 55.3263 10.1774 53.7258 10.1774C52.466 10.1774 51.4014 10.9892 51.0007 12.1129H43.0806V11.1452C43.0806 10.6112 42.6483 10.1774 42.1129 10.1774H40.7407C40.5266 9.4398 40.2256 8.7173 39.8377 8.01465L40.8616 6.99067C41.2401 6.61218 41.2401 6.00072 40.8616 5.62223L37.9584 2.719C37.5799 2.34051 36.9685 2.34051 36.59 2.719L35.566 3.74297C34.8643 3.35597 34.1418 3.05403 33.4032 2.83997V1.46774C33.4032 0.933783 32.9709 0.5 32.4355 0.5H28.5645C28.0291 0.5 27.5968 0.933783 27.5968 1.46774V2.83808C26.845 3.05214 26.1173 3.34983 25.4212 3.73022L24.41 2.719C24.0315 2.34051 23.4201 2.34051 23.0416 2.719L20.4219 5.33871H15.8057C15.405 4.21503 14.3404 3.40323 13.0806 3.40323C11.4802 3.40323 10.1774 4.70599 10.1774 6.30645C10.1774 7.90691 11.4802 9.20968 13.0806 9.20968C14.3404 9.20968 15.405 8.39787 15.8057 7.27419H20.4219L21.1496 8.00189C20.7692 8.69793 20.4715 9.42562 20.2574 10.1774H18.8871C18.3517 10.1774 17.9194 10.6112 17.9194 11.1452V12.1129H9.99928C9.59857 10.9892 8.53396 10.1774 7.2742 10.1774C5.67374 10.1774 4.37097 11.4802 4.37097 13.0806C4.37097 14.6811 5.67374 15.9839 7.2742 15.9839ZM53.7258 12.1129C54.2598 12.1129 54.6936 12.5476 54.6936 13.0806C54.6936 13.6137 54.2598 14.0484 53.7258 14.0484C53.1918 14.0484 52.7581 13.6137 52.7581 13.0806C52.7581 12.5476 53.1918 12.1129 53.7258 12.1129ZM47.9194 18.8871C48.4533 18.8871 48.8871 19.3218 48.8871 19.8548C48.8871 20.3879 48.4533 20.8226 47.9194 20.8226C47.3854 20.8226 46.9516 20.3879 46.9516 19.8548C46.9516 19.3218 47.3854 18.8871 47.9194 18.8871ZM13.0806 7.27419C12.5467 7.27419 12.1129 6.83947 12.1129 6.30645C12.1129 5.77344 12.5467 5.33871 13.0806 5.33871C13.6146 5.33871 14.0484 5.77344 14.0484 6.30645C14.0484 6.83947 13.6146 7.27419 13.0806 7.27419ZM19.8548 12.1129H21.0173C21.4775 12.1129 21.8744 11.7887 21.9656 11.338C22.1764 10.2927 22.5856 9.29568 23.1791 8.37472C23.4258 7.99149 23.3714 7.48825 23.0491 7.16598L22.191 6.30645L23.7258 4.77167L24.5853 5.63073C24.9086 5.95442 25.4118 6.00734 25.7941 5.75973C26.7141 5.16624 27.7111 4.75797 28.7573 4.54628C29.2081 4.45413 29.5323 4.05721 29.5323 3.59791V2.43548H31.4677V3.59791C31.4677 4.05815 31.7919 4.45413 32.2427 4.54628C33.2563 4.75135 34.2491 5.16435 35.1936 5.77438C35.5769 6.0201 36.0792 5.96765 36.4024 5.64444L37.2742 4.77167L38.809 6.30645L37.9372 7.17827C37.6149 7.50054 37.5606 8.00378 37.8072 8.38606C38.4172 9.33348 38.8302 10.3263 39.0344 11.337C39.1256 11.7887 39.5225 12.1129 39.9827 12.1129H41.1452V14.0484H39.9827C39.5225 14.0484 39.1256 14.3725 39.0344 14.8233C38.8236 15.8686 38.4144 16.8656 37.8209 17.7866C37.5743 18.1698 37.6286 18.673 37.9509 18.9953L38.809 19.8548L37.2742 21.3896L36.4147 20.5306C36.0924 20.2083 35.5882 20.1549 35.2059 20.4016C34.2859 20.9951 33.2889 21.4033 32.2427 21.615C31.7919 21.7072 31.4677 22.1041 31.4677 22.5634V23.7258H29.5323V22.5634C29.5323 22.1031 29.2081 21.7072 28.7573 21.615C27.7437 21.4099 26.7509 20.9969 25.8064 20.3869C25.4231 20.1421 24.9208 20.1936 24.5976 20.5169L23.7258 21.3896L22.191 19.8548L23.0628 18.983C23.3851 18.6608 23.4395 18.1575 23.1928 17.7752C22.5828 16.8278 22.1698 15.835 21.9656 14.8243C21.8744 14.3725 21.4775 14.0484 21.0173 14.0484H19.8548V12.1129ZM7.2742 12.1129C7.80816 12.1129 8.24194 12.5476 8.24194 13.0806C8.24194 13.6137 7.80816 14.0484 7.2742 14.0484C6.74024 14.0484 6.30646 13.6137 6.30646 13.0806C6.30646 12.5476 6.74024 12.1129 7.2742 12.1129Z" fill="#01C77F"/>
</g>
<defs>
<clipPath id="clip0">
<rect x="0.5" y="0.5" width="60" height="60" fill="white"/>
</clipPath>
</defs>
</svg>
