<svg width="550" height="484" viewBox="0 0 550 484" fill="none" xmlns="http://www.w3.org/2000/svg">
<g clip-path="url(#clip0)">
<path d="M2.10527 420.214H28.0654L28.0654 242.058H2.10527L2.10527 420.214Z" fill="#E7E7E7"/>
<path d="M11.2373 420.214H2.09131V386.358H20.8155L11.2373 420.214Z" fill="#F0F0F0"/>
<path d="M276.652 420.214H302.612V242.058H276.652V420.214Z" fill="#E7E7E7"/>
<path d="M2.10526 410.977L284.627 410.977V242.058L2.10526 242.058V410.977Z" fill="#F0F0F0"/>
<path d="M275.481 420.214H284.627V386.358H265.903L275.481 420.214Z" fill="#F0F0F0"/>
<path d="M272.33 396.473H194.366C193.415 396.469 192.503 396.089 191.832 395.415C191.16 394.741 190.783 393.829 190.783 392.878V258.944C190.783 257.994 191.16 257.081 191.832 256.408C192.503 255.734 193.415 255.354 194.366 255.35H272.33C273.283 255.354 274.196 255.733 274.87 256.407C275.543 257.08 275.923 257.992 275.927 258.944V392.878C275.923 393.83 275.543 394.743 274.87 395.416C274.196 396.089 273.283 396.469 272.33 396.473ZM194.366 256.743C194.078 256.743 193.792 256.8 193.525 256.911C193.259 257.022 193.017 257.184 192.813 257.389C192.61 257.593 192.449 257.836 192.34 258.103C192.231 258.37 192.175 258.656 192.177 258.944V392.878C192.175 393.167 192.231 393.453 192.34 393.72C192.449 393.987 192.61 394.229 192.813 394.434C193.017 394.638 193.259 394.801 193.525 394.912C193.792 395.022 194.078 395.079 194.366 395.079H272.33C272.914 395.079 273.475 394.848 273.888 394.435C274.301 394.022 274.533 393.462 274.533 392.878V258.944C274.533 258.361 274.301 257.801 273.888 257.388C273.475 256.975 272.914 256.743 272.33 256.743H194.366Z" fill="white"/>
<path d="M182.334 396.473H104.384C103.43 396.473 102.515 396.094 101.841 395.42C101.166 394.746 100.787 393.832 100.787 392.878V258.944C100.787 257.991 101.166 257.077 101.841 256.403C102.515 255.729 103.43 255.35 104.384 255.35H182.334C183.287 255.354 184.2 255.733 184.874 256.407C185.547 257.08 185.928 257.992 185.931 258.944V392.878C185.928 393.83 185.547 394.743 184.874 395.416C184.2 396.089 183.287 396.469 182.334 396.473ZM104.384 256.743C104.095 256.743 103.808 256.8 103.541 256.911C103.274 257.021 103.031 257.183 102.826 257.388C102.622 257.592 102.46 257.835 102.349 258.102C102.238 258.369 102.181 258.655 102.181 258.944V392.878C102.181 393.462 102.413 394.022 102.826 394.435C103.24 394.848 103.8 395.079 104.384 395.079H182.334C182.918 395.079 183.479 394.848 183.892 394.435C184.305 394.022 184.537 393.462 184.537 392.878V258.944C184.537 258.361 184.305 257.801 183.892 257.388C183.479 256.975 182.918 256.743 182.334 256.743H104.384Z" fill="white"/>
<path d="M92.3382 396.473H14.3882C13.4353 396.469 12.5225 396.089 11.8487 395.416C11.175 394.743 10.7948 393.83 10.7911 392.878V258.944C10.7948 257.992 11.175 257.08 11.8487 256.407C12.5225 255.733 13.4353 255.354 14.3882 255.35H92.3382C93.2911 255.354 94.2039 255.733 94.8776 256.407C95.5514 257.08 95.9316 257.992 95.9352 258.944V392.878C95.9316 393.83 95.5514 394.743 94.8776 395.416C94.2039 396.089 93.2911 396.469 92.3382 396.473ZM14.3882 256.743C14.0989 256.743 13.8125 256.8 13.5452 256.911C13.2779 257.021 13.0351 257.183 12.8305 257.388C12.626 257.592 12.4637 257.835 12.353 258.102C12.2423 258.369 12.1853 258.655 12.1853 258.944V392.878C12.1853 393.462 12.4174 394.022 12.8305 394.435C13.2437 394.848 13.804 395.079 14.3882 395.079H92.3382C92.9224 395.079 93.4827 394.848 93.8959 394.435C94.309 394.022 94.541 393.462 94.541 392.878V258.944C94.541 258.361 94.309 257.801 93.8959 257.388C93.4827 256.975 92.9224 256.743 92.3382 256.743H14.3882Z" fill="white"/>
<path d="M366.104 381.913H509.833L509.833 0.133392H366.104L366.104 381.913Z" fill="#E7E7E7"/>
<path d="M359.022 381.913H508.829L508.829 0.133392H359.022L359.022 381.913Z" fill="#F0F0F0"/>
<path d="M366.104 388.476H509.833V381.899H366.104V388.476Z" fill="#E7E7E7"/>
<path d="M347.227 388.476H497.034V381.899H347.227V388.476Z" fill="#F0F0F0"/>
<path d="M498.916 371.993V10.0393L368.935 10.0393V371.993H498.916Z" fill="#FAFAFA"/>
<path d="M398.561 371.993L414.428 10.0393H441.893L426.027 371.993H398.561Z" fill="white"/>
<path d="M494.329 118.936C494.53 118.933 494.722 118.85 494.863 118.707C495.003 118.564 495.082 118.371 495.082 118.17V16.4623C495.082 16.2615 495.003 16.0687 494.863 15.9254C494.722 15.782 494.53 15.6997 494.329 15.696C494.126 15.696 493.931 15.7768 493.787 15.9205C493.643 16.0642 493.563 16.2591 493.563 16.4623V118.17C493.563 118.373 493.643 118.568 493.787 118.712C493.931 118.856 494.126 118.936 494.329 118.936Z" fill="#F0F0F0"/>
<path d="M431.925 371.993L447.805 10.0393H458.512L442.632 371.993H431.925Z" fill="white"/>
<path d="M370.189 371.993V10.0393H368.935V371.993H370.189Z" fill="#E7E7E7"/>
<path opacity="0.5" d="M356.68 22.9688H502.709L503.629 13.8987H357.6L356.68 22.9688Z" fill="#E1E1E1"/>
<path opacity="0.5" d="M356.68 37.8906H502.709L503.629 28.8206H357.6L356.68 37.8906Z" fill="#E1E1E1"/>
<path opacity="0.5" d="M356.68 52.8262H502.709L503.629 43.7422H357.6L356.68 52.8262Z" fill="#E1E1E1"/>
<path opacity="0.5" d="M356.68 67.7481H502.709L503.629 58.6641H357.6L356.68 67.7481Z" fill="#E1E1E1"/>
<path opacity="0.5" d="M356.68 82.6697H502.709L503.629 73.5857H357.6L356.68 82.6697Z" fill="#E1E1E1"/>
<path opacity="0.5" d="M356.68 97.5916H502.709L503.629 88.5215H357.6L356.68 97.5916Z" fill="#E1E1E1"/>
<path d="M243.303 4.46631H49.0481V112.876H243.303V4.46631Z" fill="#E7E7E7"/>
<path d="M241.448 4.46631H47.1938V112.876H241.448V4.46631Z" fill="#F5F5F5"/>
<path d="M227.492 98.943V18.3989L61.1219 18.3989V98.943L227.492 98.943Z" fill="white"/>
<path d="M90.47 98.943L100.731 18.3989H129.731L119.456 98.943H90.47Z" fill="#FAFAFA"/>
<path d="M127.026 98.943L137.287 18.3989H153.795L143.519 98.943H127.026Z" fill="#FAFAFA"/>
<path d="M186.642 98.943L196.918 18.3989H213.411L203.136 98.943H186.642Z" fill="#FAFAFA"/>
<path d="M62.9484 98.943L62.9484 18.3989H61.122L61.122 98.943H62.9484Z" fill="#E7E7E7"/>
<path d="M245.659 165.708H239.761V235.593H245.659V165.708Z" fill="#F5F5F5"/>
<path d="M244.906 165.638H243.233V235.524H244.906V165.638Z" fill="#FAFAFA"/>
<path d="M233.571 233.127H251.863C253.42 233.127 254.913 233.745 256.014 234.845C257.114 235.945 257.733 237.437 257.733 238.993V242.225H227.702V238.993C227.702 237.437 228.32 235.945 229.421 234.845C230.522 233.745 232.014 233.127 233.571 233.127Z" fill="#F0F0F0"/>
<path d="M251.305 237.07V232.305C251.305 231.782 250.881 231.358 250.357 231.358H248.085C247.561 231.358 247.137 231.782 247.137 232.305V237.07C247.137 237.594 247.561 238.018 248.085 238.018H250.357C250.881 238.018 251.305 237.594 251.305 237.07Z" fill="#F0F0F0"/>
<path d="M276.638 174.388H208.782L209.256 172.758C211.368 165.523 215.771 159.167 221.804 154.645C227.837 150.123 235.176 147.679 242.717 147.679C250.259 147.679 257.597 150.123 263.63 154.645C269.664 159.167 274.066 165.523 276.178 172.758L276.638 174.388Z" fill="#E1E1E1"/>
<path d="M46.3713 165.708H40.4738V235.593H46.3713V165.708Z" fill="#F5F5F5"/>
<path d="M45.6184 165.638H43.9453V235.524H45.6184V165.638Z" fill="#FAFAFA"/>
<path d="M34.2835 233.127H52.5615C54.1183 233.127 55.6112 233.745 56.712 234.845C57.8127 235.945 58.4311 237.437 58.4311 238.993V242.225H28.4139V238.993C28.4139 238.223 28.5657 237.46 28.8607 236.748C29.1557 236.037 29.588 235.39 30.1331 234.845C30.6781 234.301 31.3252 233.869 32.0373 233.574C32.7494 233.279 33.5127 233.127 34.2835 233.127Z" fill="#F0F0F0"/>
<path d="M52.0178 237.07V232.305C52.0178 231.782 51.5933 231.358 51.0697 231.358H48.7972C48.2736 231.358 47.8491 231.782 47.8491 232.305V237.07C47.8491 237.594 48.2736 238.018 48.7972 238.018H51.0697C51.5933 238.018 52.0178 237.594 52.0178 237.07Z" fill="#F0F0F0"/>
<path d="M77.3505 174.388H9.49454L9.96857 172.758C12.0802 165.523 16.4831 159.167 22.5164 154.645C28.5497 150.123 35.8879 147.679 43.4295 147.679C50.9711 147.679 58.3093 150.123 64.3426 154.645C70.3759 159.167 74.7788 165.523 76.8904 172.758L77.3505 174.388Z" fill="#E1E1E1"/>
<path d="M279.678 483.133C428.973 483.133 550 476.072 550 467.362C550 458.651 428.973 451.59 279.678 451.59C130.383 451.59 9.35513 458.651 9.35513 467.362C9.35513 476.072 130.383 483.133 279.678 483.133Z" fill="#F5F5F5"/>
<path d="M372.113 113.781C369.97 111.632 368.766 108.721 368.766 105.686C368.766 102.652 369.97 99.7408 372.113 97.5915L377.565 92.0882C379.715 89.9459 382.628 88.7429 385.665 88.7429C388.702 88.7429 391.615 89.9459 393.765 92.0882C395.909 94.2375 397.113 97.1484 397.113 100.183C397.113 103.218 395.909 106.129 393.765 108.278L388.314 113.725C386.171 115.875 383.262 117.088 380.225 117.099C377.189 117.109 374.272 115.916 372.113 113.781Z" fill="#F03A31"/>
<path opacity="0.4" d="M372.113 113.781C369.97 111.632 368.766 108.721 368.766 105.686C368.766 102.652 369.97 99.7408 372.113 97.5915L377.565 92.0882C379.715 89.9459 382.628 88.7429 385.665 88.7429C388.702 88.7429 391.615 89.9459 393.765 92.0882C395.909 94.2375 397.113 97.1484 397.113 100.183C397.113 103.218 395.909 106.129 393.765 108.278L388.314 113.725C386.171 115.875 383.262 117.088 380.225 117.099C377.189 117.109 374.272 115.916 372.113 113.781Z" fill="white"/>
<path d="M379.768 106.132C376.999 103.358 375.444 99.6005 375.444 95.6827C375.444 91.765 376.999 88.0071 379.768 85.2333L390.377 74.6167C393.153 71.8499 396.914 70.2961 400.834 70.2961C404.754 70.2961 408.515 71.8499 411.291 74.6167C414.059 77.3905 415.614 81.1484 415.614 85.0661C415.614 88.9839 414.059 92.7418 411.291 95.5156L400.639 106.16C397.861 108.91 394.108 110.451 390.197 110.446C386.287 110.441 382.538 108.89 379.768 106.132Z" fill="#F03A31"/>
<path d="M394.63 91.2939C389.895 86.5831 383.486 83.9382 376.805 83.9382C370.124 83.9382 363.715 86.5831 358.98 91.2939L394.63 126.919C399.344 122.188 401.991 115.783 401.991 109.107C401.991 102.43 399.344 96.0253 394.63 91.2939Z" fill="#F03A31"/>
<path d="M409.074 160.358C408.501 160.358 407.951 160.13 407.546 159.725C407.14 159.32 406.913 158.771 406.913 158.198C406.913 157.625 407.14 157.076 407.546 156.671C407.951 156.266 408.501 156.039 409.074 156.039C419.427 156.039 429.357 151.928 436.678 144.612C443.999 137.296 448.112 127.374 448.112 117.027C448.112 106.681 443.999 96.7584 436.678 89.4424C429.357 82.1263 419.427 78.0162 409.074 78.0162C408.501 78.0162 407.951 77.7887 407.546 77.3837C407.14 76.9787 406.913 76.4294 406.913 75.8567C406.913 75.284 407.14 74.7347 407.546 74.3297C407.951 73.9247 408.501 73.6972 409.074 73.6972C414.832 73.5939 420.554 74.6383 425.904 76.7691C431.254 78.9 436.126 82.0747 440.235 86.1079C444.344 90.141 447.608 94.9518 449.836 100.259C452.064 105.567 453.211 111.265 453.211 117.02C453.211 122.776 452.064 128.474 449.836 133.782C447.608 139.089 444.344 143.9 440.235 147.933C436.126 151.966 431.254 155.141 425.904 157.272C420.554 159.403 414.832 160.447 409.074 160.344V160.358Z" fill="#F03A31"/>
<path d="M461.635 453.582L412.322 219.585L405.714 221.382L431.325 342.874L393.082 453.582H359.05L359.161 452.064H351.549L351.005 460.298H463.615L464.075 453.582H461.635ZM432.357 347.514L454.664 453.582H395.675L432.357 347.514Z" fill="#F03A31"/>
<path d="M216.102 453.582L166.705 219.585L160.111 221.382L185.722 342.874L147.479 453.582H113.446L113.544 452.064H105.96L105.402 460.298H218.026L218.472 453.582H216.102ZM186.824 347.514L209.131 453.582H150.058L186.824 347.514Z" fill="#F03A31"/>
<path d="M434.811 335.755L428.481 354.104H183.463L189.807 335.755H434.811Z" fill="#F03A31"/>
<path d="M425.163 349.604L428.481 354.104H183.463L180.159 349.604H425.163Z" fill="#F03A31"/>
<path opacity="0.2" d="M425.163 349.604L428.481 354.104H183.463L180.159 349.604H425.163Z" fill="black"/>
<path d="M385.749 307.472H86.4965L82.1745 303.139L467.393 139.375L471.729 143.694L385.749 307.472Z" fill="#F03A31"/>
<path opacity="0.4" d="M385.749 307.472H86.4965L82.1745 303.139L467.393 139.375L471.729 143.694L385.749 307.472Z" fill="black"/>
<path d="M132.879 196.034L124.575 211.866L125.81 212.513L134.113 196.681L132.879 196.034Z" fill="#F03A31"/>
<path d="M121.842 217.059L117.894 224.587L119.129 225.234L123.077 217.706L121.842 217.059Z" fill="#F03A31"/>
<path d="M381.427 303.138H82.1745L168.141 139.375H467.393L381.427 303.138Z" fill="#F03A31"/>
<path opacity="0.3" d="M351.34 276.876L139.546 277.642L202.16 160.455C252.351 164.05 327.541 164.37 409.771 162.74L351.34 276.876Z" fill="black"/>
<path d="M348.272 277.642H138.333L198.646 162.74C263.31 165.137 332.56 163.618 407.15 161.542C395.592 190.494 374.623 232.514 348.272 277.642Z" fill="white"/>
<g opacity="0.6">
<path opacity="0.6" d="M175.321 264.085L234.505 263.807L298.025 263.528L329.897 263.361C330.024 263.34 330.14 263.275 330.224 263.177C330.308 263.078 330.354 262.954 330.354 262.824C330.354 262.695 330.308 262.571 330.224 262.472C330.14 262.374 330.024 262.309 329.897 262.288L270.713 262.567L207.193 262.845L175.321 263.013C175.194 263.033 175.078 263.098 174.994 263.197C174.91 263.295 174.864 263.42 174.864 263.549C174.864 263.678 174.91 263.803 174.994 263.901C175.078 263.999 175.194 264.065 175.321 264.085Z" fill="#F03A31"/>
<path opacity="0.6" d="M327.29 265.144C339.93 241.069 352.697 217.063 365.589 193.127C369.306 186.226 373.024 179.334 376.742 172.451C377.077 171.838 376.143 171.295 375.808 171.908C362.795 195.844 349.936 219.845 337.23 243.911C333.587 250.794 329.953 257.686 326.328 264.587C326.007 265.214 326.941 265.757 327.262 265.144H327.29Z" fill="#F03A31"/>
<path opacity="0.6" d="M377.383 172.967L317.921 173.245L253.662 173.524L221.874 173.677C221.73 173.677 221.591 173.734 221.489 173.836C221.387 173.938 221.33 174.076 221.33 174.22C221.33 174.365 221.387 174.503 221.489 174.605C221.591 174.707 221.73 174.764 221.874 174.764L281.351 174.485L345.596 174.193L377.383 174.039C377.511 174.019 377.627 173.953 377.711 173.855C377.794 173.757 377.84 173.632 377.84 173.503C377.84 173.374 377.794 173.249 377.711 173.151C377.627 173.052 377.511 172.987 377.383 172.967Z" fill="#F03A31"/>
<path opacity="0.6" d="M225.638 171.016C212.849 195.342 199.938 219.603 186.907 243.8C183.189 250.738 179.444 257.667 175.67 264.587C175.335 265.2 176.269 265.743 176.604 265.144C189.728 240.939 202.741 216.673 215.642 192.347C219.313 185.418 222.971 178.488 226.614 171.559C226.935 170.946 226.001 170.389 225.68 171.016H225.638Z" fill="#F03A31"/>
<path opacity="0.6" d="M246.774 252.41L268.608 209.526C270.578 205.68 272.535 201.835 274.477 197.989C274.798 197.376 273.864 196.833 273.543 197.446C266.052 212.168 258.555 226.89 251.055 241.612L245.84 251.867C245.52 252.48 246.454 253.023 246.774 252.41Z" fill="#F03A31"/>
<path opacity="0.6" d="M195.021 252.661C199.204 244.422 203.387 236.197 207.569 227.986C207.89 227.359 206.956 226.816 206.635 227.443C202.453 235.663 198.27 243.888 194.087 252.117C193.767 252.73 194.701 253.274 195.021 252.661Z" fill="#F03A31"/>
<path opacity="0.6" d="M318.743 252.48C329.186 233.671 338.415 214.179 348.3 195.064C350.726 190.382 353.18 185.701 355.745 181.131C356.08 180.518 355.146 179.975 354.811 180.588C344.369 199.369 335.139 218.874 325.254 237.962C322.828 242.643 320.374 247.325 317.809 251.895C317.474 252.508 318.409 253.051 318.743 252.438V252.48Z" fill="#F03A31"/>
<path opacity="0.6" d="M261.427 252.313C270.922 233.671 280.486 215.085 289.953 196.429C291.012 194.325 292.086 192.249 293.146 190.104L294.874 186.69C295.167 186.119 295.446 185.562 295.725 184.99C296.004 184.419 296.324 183.249 296.798 183.012C297.496 182.907 298.206 182.907 298.904 183.012H301.567H307.283C315.76 182.919 324.241 182.849 332.727 182.803C341.288 182.803 349.862 182.733 358.422 182.887C358.566 182.887 358.705 182.829 358.807 182.727C358.909 182.626 358.966 182.487 358.966 182.343C358.966 182.199 358.909 182.061 358.807 181.959C358.705 181.857 358.566 181.8 358.422 181.8C337.746 181.438 317.07 181.8 296.394 182.037C296.3 182.042 296.209 182.07 296.129 182.119C296.049 182.167 295.982 182.235 295.934 182.315C284.251 205.569 272.302 228.683 260.493 251.881C260.187 252.494 261.121 253.037 261.427 252.424V252.313Z" fill="#F03A31"/>
<path opacity="0.6" d="M318.799 252.062C313.71 233.754 307.645 215.698 301.818 197.613C300.172 192.523 298.537 187.415 296.91 182.287C296.701 181.619 295.669 181.911 295.878 182.566C301.762 201.124 307.966 219.571 313.626 238.185C315.067 242.829 316.461 247.529 317.809 252.285C317.854 252.416 317.947 252.526 318.07 252.59C318.193 252.655 318.337 252.671 318.471 252.633C318.604 252.596 318.719 252.508 318.79 252.389C318.862 252.27 318.885 252.128 318.855 251.992L318.799 252.062Z" fill="#F03A31"/>
<path opacity="0.6" d="M355.425 181.87C343.909 191.622 331.556 200.261 319.175 208.927C305.861 218.303 292.421 227.513 279.315 237.196C272.846 241.975 266.461 246.879 260.312 252.062C259.782 252.508 260.549 253.274 261.079 252.828C272.818 242.908 285.394 233.977 297.956 225.13C311.201 215.795 324.571 206.642 337.621 197.042C343.909 192.403 350.169 187.666 356.122 182.636C356.652 182.19 355.885 181.424 355.355 181.87H355.425Z" fill="#F03A31"/>
<path opacity="0.6" d="M259.42 252.187C275.36 252.633 291.305 252.847 307.255 252.828C311.117 252.828 314.965 252.828 318.813 252.744C318.94 252.724 319.056 252.658 319.14 252.56C319.224 252.462 319.27 252.337 319.27 252.208C319.27 252.079 319.224 251.954 319.14 251.856C319.056 251.757 318.94 251.692 318.813 251.672C302.821 251.978 286.746 251.672 270.796 251.365C267.004 251.3 263.212 251.212 259.42 251.1C259.276 251.1 259.137 251.158 259.035 251.259C258.933 251.361 258.876 251.5 258.876 251.644C258.876 251.788 258.933 251.926 259.035 252.028C259.137 252.13 259.276 252.187 259.42 252.187Z" fill="#F03A31"/>
<path opacity="0.6" d="M237.308 252.828C247.471 233.935 256.827 214.625 266.684 195.537C269.109 190.828 271.549 186.119 274.059 181.437C274.394 180.824 273.459 180.281 273.125 180.894C262.961 199.801 253.606 219.111 243.749 238.185C241.323 242.908 238.883 247.617 236.374 252.285C236.039 252.898 236.973 253.441 237.308 252.828Z" fill="#F03A31"/>
<path opacity="0.6" d="M207.276 252.591C213.634 240.107 220.001 227.633 226.377 215.168C229.574 208.926 232.758 202.68 235.927 196.429L240.57 187.261C241.086 186.258 241.853 183.722 242.926 183.29C243.851 183.155 244.79 183.155 245.715 183.29H248.796C256.896 183.151 264.983 182.998 273.083 183.29C273.78 183.29 273.78 182.232 273.083 182.204C262.808 181.883 252.546 182.204 242.271 182.357C242.178 182.355 242.085 182.379 242.004 182.426C241.923 182.472 241.856 182.54 241.811 182.622C230.044 205.722 218.151 228.864 206.342 252.048C206.036 252.675 206.97 253.218 207.276 252.591Z" fill="#F03A31"/>
<path opacity="0.6" d="M237.377 252.563C239.469 229.324 240.626 206.001 242.787 182.761C242.787 182.065 241.769 182.078 241.699 182.761C239.552 206.001 238.381 229.324 236.29 252.563C236.29 253.26 237.308 253.246 237.377 252.563Z" fill="#F03A31"/>
<path opacity="0.6" d="M273.264 182.232C255.99 200.86 238.033 218.86 220.466 237.237C215.697 242.225 210.953 247.25 206.231 252.312C205.771 252.828 206.524 253.58 206.998 253.079C224.467 234.27 242.48 216.088 260.201 197.613C264.848 192.783 269.453 187.907 274.017 182.984C274.491 182.482 273.724 181.716 273.25 182.232H273.264Z" fill="#F03A31"/>
<path opacity="0.6" d="M205.938 252.438C216.213 252.954 226.544 253.385 236.834 253.107C236.978 253.107 237.116 253.05 237.218 252.948C237.32 252.846 237.377 252.708 237.377 252.563C237.377 252.419 237.32 252.281 237.218 252.179C237.116 252.077 236.978 252.02 236.834 252.02C226.544 252.313 216.213 251.867 205.938 251.365C205.241 251.365 205.241 252.41 205.938 252.438Z" fill="#F03A31"/>
<path opacity="0.6" d="M222.459 188.473C222.201 188.902 222.03 189.378 221.956 189.872C221.882 190.367 221.906 190.872 222.027 191.357C222.163 191.761 222.397 192.124 222.709 192.413C223.02 192.703 223.4 192.91 223.812 193.015C224.832 193.182 225.877 193.12 226.871 192.833C227.864 192.546 228.781 192.042 229.556 191.357C230.361 190.772 231.007 189.996 231.435 189.098C231.864 188.2 232.061 187.21 232.01 186.216C231.895 185.4 231.474 184.658 230.832 184.14C230.19 183.623 229.375 183.369 228.552 183.43C227.361 183.568 226.259 184.126 225.443 185.004C224.997 185.422 224.565 185.868 224.16 186.397C223.776 186.786 223.498 187.265 223.352 187.791C223.226 188.459 224.258 188.752 224.383 188.069C224.509 187.387 225.29 186.676 225.778 186.188C226.327 185.57 226.996 185.068 227.743 184.712C228.032 184.582 228.344 184.513 228.661 184.51C228.977 184.507 229.291 184.57 229.582 184.694C229.873 184.819 230.135 185.002 230.351 185.233C230.567 185.464 230.733 185.737 230.839 186.035C230.954 186.763 230.887 187.508 230.643 188.203C230.4 188.898 229.988 189.523 229.444 190.02C228.267 191.256 226.672 192.011 224.969 192.138C224.628 192.192 224.279 192.156 223.956 192.034C223.633 191.912 223.348 191.707 223.129 191.441C222.958 191.065 222.885 190.652 222.917 190.241C222.949 189.829 223.084 189.432 223.31 189.086C223.631 188.473 222.696 187.93 222.376 188.543L222.459 188.473Z" fill="#F03A31"/>
</g>
<path opacity="0.2" d="M467.393 139.375L381.413 303.138H82.1605L168.141 139.375H253.927L210.204 159.396H210.107C187.799 167.519 169.968 179.961 160.849 195.495C139.936 231.079 172.798 269.338 234.185 281.069C295.572 292.8 362.242 273.351 383.114 237.767C387.469 230.652 389.641 222.417 389.36 214.081L393.863 139.292L467.393 139.375Z" fill="black"/>
<path d="M195.983 111.872C192.359 118.254 188.692 124.858 185.192 131.378C181.693 137.898 178.221 144.516 175.363 151.093C174.596 152.737 173.969 154.353 173.286 155.983C173.286 156.15 173.286 155.983 173.286 155.983C173.286 155.983 173.286 156.08 173.286 156.192C173.235 156.608 173.235 157.029 173.286 157.446C173.543 158.805 173.975 160.125 174.568 161.375C175.23 162.894 175.98 164.373 176.813 165.805C180.556 172.01 184.716 177.954 189.263 183.597L183.826 189.393C177.332 184.665 171.475 179.121 166.398 172.897C163.479 169.374 161.221 165.353 159.734 161.027C159.281 159.617 159.004 158.157 158.912 156.68C158.871 155.806 158.899 154.93 158.995 154.06C159.049 153.592 159.128 153.127 159.232 152.667C159.279 152.422 159.34 152.181 159.413 151.942L159.595 151.329C160.222 149.393 160.836 147.442 161.547 145.589C164.301 138.253 167.452 131.072 170.985 124.077C174.485 117.111 178.138 110.437 182.139 103.736L195.983 111.872Z" fill="#FFC3BD"/>
<path d="M187.228 181.772L194.659 184.21L188.413 194.715C188.413 194.715 182.962 192.249 181.86 187.247L187.228 181.772Z" fill="#FFC3BD"/>
<path d="M204.781 188.265L197.559 196.359L188.413 194.715L194.659 184.21L204.781 188.265Z" fill="#FFC3BD"/>
<path d="M239.371 62.983C239.148 63.805 239.371 64.5853 239.957 64.7246C240.542 64.8639 241.114 64.3066 241.351 63.4846C241.588 62.6626 241.351 61.8824 240.751 61.743C240.152 61.6037 239.58 62.161 239.371 62.983Z" fill="#2D1111"/>
<path d="M239.343 64.5713C239.68 67.3499 240.398 70.069 241.476 72.6522C240.802 72.9173 240.077 73.0297 239.354 72.9816C238.631 72.9334 237.927 72.7257 237.294 72.3735L239.343 64.5713Z" fill="#FF847F"/>
<path d="M237.517 57.6189C237.404 57.5642 237.314 57.47 237.266 57.3542C237.241 57.2921 237.229 57.2257 237.231 57.1589C237.232 57.0921 237.247 57.0262 237.274 56.9652C237.302 56.9042 237.341 56.8493 237.39 56.8036C237.438 56.758 237.496 56.7225 237.559 56.6994C238.294 56.3944 239.091 56.2694 239.884 56.3348C240.677 56.4002 241.443 56.6542 242.118 57.0755C242.179 57.1106 242.231 57.1581 242.273 57.2149C242.314 57.2717 242.343 57.3366 242.358 57.4053C242.373 57.474 242.373 57.545 242.358 57.6138C242.344 57.6825 242.315 57.7474 242.274 57.8043C242.232 57.8613 242.18 57.9089 242.119 57.9441C242.058 57.9793 241.99 58.0014 241.921 58.0089C241.851 58.0164 241.78 58.0091 241.713 57.9875C241.646 57.9659 241.584 57.9305 241.532 57.8836C240.994 57.558 240.385 57.3654 239.757 57.3218C239.129 57.2781 238.5 57.3848 237.921 57.6329C237.856 57.6587 237.787 57.6708 237.717 57.6684C237.648 57.666 237.58 57.6491 237.517 57.6189Z" fill="#2D1111"/>
<path d="M210.929 66.2153C212.449 73.9479 213.969 88.1173 208.545 93.2863C208.545 93.2863 210.664 101.13 225.053 101.13C240.863 101.13 232.609 93.2863 232.609 93.2863C223.979 91.2243 224.244 84.8292 225.638 78.8104L210.929 66.2153Z" fill="#FFC3BD"/>
<path d="M205.91 97.2711C205.157 93.0914 204.349 88.3403 207.067 87.1282C210.079 85.8046 225.819 85.6514 230.908 89.1624C235.997 92.6734 233.697 100.754 233.697 100.754L205.91 97.2711Z" fill="#2D1111"/>
<path opacity="0.6" d="M205.91 97.2711C205.157 93.0914 204.349 88.3403 207.067 87.1282C210.079 85.8046 225.819 85.6514 230.908 89.1624C235.997 92.6734 233.697 100.754 233.697 100.754L205.91 97.2711Z" fill="#F03A31"/>
<path d="M155.426 451.924C155.852 452.078 156.305 452.144 156.758 452.12C157.21 452.096 157.653 451.982 158.061 451.785C158.218 451.642 158.325 451.453 158.368 451.245C158.41 451.038 158.386 450.822 158.298 450.629C158.251 450.467 158.169 450.317 158.058 450.189C157.948 450.062 157.811 449.96 157.657 449.89C156.263 449.207 152.944 450.545 152.805 450.601C152.76 450.618 152.721 450.648 152.693 450.688C152.666 450.728 152.651 450.775 152.652 450.824C152.651 450.872 152.663 450.92 152.688 450.962C152.713 451.003 152.748 451.038 152.791 451.06C153.636 451.44 154.52 451.73 155.426 451.924ZM157.141 450.238L157.434 450.336C157.527 450.374 157.611 450.432 157.678 450.507C157.746 450.582 157.796 450.671 157.824 450.768C157.95 451.214 157.824 451.353 157.726 451.409C157.169 451.882 155.05 451.409 153.544 450.852C154.683 450.385 155.911 450.176 157.141 450.238Z" fill="#F03A31"/>
<path d="M152.847 451.074H152.972C154.171 450.726 156.723 448.901 156.75 447.703C156.755 447.515 156.693 447.331 156.576 447.183C156.459 447.036 156.294 446.934 156.109 446.895C155.93 446.833 155.739 446.808 155.55 446.823C155.36 446.837 155.176 446.89 155.008 446.978C153.614 447.703 152.693 450.629 152.665 450.754C152.642 450.792 152.63 450.835 152.63 450.879C152.63 450.924 152.642 450.967 152.665 451.005C152.716 451.049 152.78 451.074 152.847 451.074ZM155.844 447.341H155.956C156.263 447.452 156.263 447.605 156.249 447.661C156.249 448.372 154.548 449.793 153.307 450.378C153.636 449.214 154.306 448.176 155.231 447.396C155.427 447.319 155.642 447.309 155.844 447.368V447.341Z" fill="#F03A31"/>
<path d="M233.432 457.121C234.826 457.121 236.109 456.94 236.541 456.327C236.654 456.166 236.714 455.973 236.714 455.777C236.714 455.58 236.654 455.388 236.541 455.226C236.454 455.081 236.339 454.955 236.202 454.854C236.066 454.754 235.911 454.681 235.746 454.641C233.976 454.167 230.281 456.271 230.169 456.369C230.124 456.392 230.088 456.428 230.065 456.474C230.043 456.519 230.035 456.57 230.044 456.62C230.051 456.67 230.074 456.717 230.109 456.755C230.144 456.792 230.189 456.818 230.239 456.829C231.293 457.019 232.361 457.117 233.432 457.121ZM235.105 455.073C235.267 455.05 235.431 455.05 235.593 455.073C235.693 455.095 235.788 455.138 235.872 455.198C235.956 455.257 236.027 455.334 236.081 455.421C236.262 455.742 236.206 455.895 236.081 455.979C235.593 456.661 232.916 456.675 230.95 456.397C232.235 455.686 233.646 455.231 235.105 455.059V455.073Z" fill="#F03A31"/>
<path d="M230.239 456.815H230.337C231.619 456.23 234.143 453.945 233.948 452.76C233.948 452.468 233.711 452.119 233.014 452.05C232.764 452.025 232.512 452.05 232.272 452.124C232.033 452.198 231.811 452.32 231.619 452.482C230.225 453.582 229.988 456.439 229.974 456.564C229.969 456.606 229.975 456.65 229.992 456.689C230.009 456.728 230.037 456.762 230.072 456.787C230.124 456.811 230.182 456.821 230.239 456.815ZM232.818 452.537H232.972C233.418 452.537 233.446 452.76 233.46 452.816C233.571 453.541 231.856 455.338 230.546 456.118C230.662 454.913 231.149 453.774 231.94 452.858C232.186 452.641 232.505 452.526 232.832 452.537H232.818Z" fill="#F03A31"/>
<path d="M218.597 456.564H229.179L230.239 432.084H219.657L218.597 456.564Z" fill="#FFC3BD"/>
<path d="M141.052 448.26L151.397 450.503L161.77 427.696L151.439 425.452L141.052 448.26Z" fill="#FFC3BD"/>
<path d="M152.387 449.472L140.815 446.95C140.61 446.908 140.397 446.936 140.21 447.03C140.023 447.123 139.872 447.277 139.783 447.466L135.74 456.215C135.643 456.428 135.595 456.661 135.601 456.894C135.607 457.128 135.666 457.358 135.773 457.566C135.88 457.774 136.034 457.955 136.221 458.095C136.408 458.235 136.625 458.331 136.855 458.375C140.926 459.183 142.948 459.378 148.009 460.479C151.146 461.162 158.242 462.889 162.592 463.823C166.942 464.756 168.42 460.604 166.775 459.824C159.176 456.355 156.012 453.304 153.962 450.461C153.58 449.945 153.018 449.592 152.387 449.472Z" fill="#2D1111"/>
<path d="M229.11 455.338H217.566C217.354 455.336 217.149 455.407 216.984 455.539C216.819 455.671 216.704 455.856 216.659 456.062L214.568 465.481C214.515 465.708 214.515 465.944 214.567 466.171C214.619 466.398 214.722 466.611 214.868 466.792C215.015 466.973 215.201 467.119 215.412 467.218C215.624 467.316 215.855 467.366 216.088 467.362C220.27 467.362 226.279 467.041 231.522 467.041C237.642 467.041 242.94 467.376 250.12 467.376C254.47 467.376 255.697 462.987 253.857 462.597C245.575 460.786 238.813 460.59 231.661 456.174C230.904 455.665 230.021 455.376 229.11 455.338Z" fill="#2D1111"/>
<path d="M250.204 106.021C253.662 113.781 257.412 121.751 261.358 129.372C263.324 133.189 265.359 136.951 267.478 140.518C269.532 144.044 271.795 147.445 274.254 150.702L275.16 151.803C275.369 152.012 275.16 151.929 275.495 152.165C276.057 152.652 276.658 153.09 277.293 153.475C278.962 154.503 280.689 155.433 282.466 156.262C286.202 158.059 290.162 159.8 294.191 161.417C302.236 164.691 310.531 167.84 318.743 170.96L316.736 178.651C307.809 177.226 298.966 175.319 290.246 172.939C285.868 171.699 281.49 170.403 277.07 168.759C274.746 167.898 272.475 166.903 270.267 165.777C268.956 165.093 267.702 164.306 266.516 163.423C265.763 162.855 265.055 162.231 264.397 161.556L263.1 160.163C259.929 156.556 257.031 152.718 254.429 148.682C251.835 144.795 249.507 140.824 247.29 136.826C242.878 128.833 238.917 120.6 235.425 112.165L250.204 106.021Z" fill="#FFC3BD"/>
<path d="M186.349 95.6689C176.423 97.9399 159.776 147.219 159.776 147.219L175.977 152.597C175.977 152.597 192.526 128.132 198.131 116.373C204 103.889 196.485 93.3561 186.349 95.6689Z" fill="#F03A31"/>
<path opacity="0.5" d="M186.349 95.6689C176.423 97.9399 159.776 147.219 159.776 147.219L175.977 152.597C175.977 152.597 192.526 128.132 198.131 116.373C204 103.889 196.485 93.3561 186.349 95.6689Z" fill="black"/>
<path d="M178.793 150.117C178.793 150.117 162.927 147.094 159.274 144.851C158.005 146.676 156.486 153.336 157.517 155.3C158.549 157.265 173.328 160.107 175.335 158.951C177.343 157.794 178.793 150.117 178.793 150.117Z" fill="#2D1111"/>
<path opacity="0.6" d="M178.793 150.117C178.793 150.117 162.927 147.094 159.274 144.851C158.005 146.676 156.486 153.336 157.517 155.3C158.549 157.265 173.328 160.107 175.335 158.951C177.343 157.794 178.793 150.117 178.793 150.117Z" fill="#F03A31"/>
<path opacity="0.3" d="M192.777 113.196C189.751 116.219 186.991 124.802 186.907 135.711C190.407 130.138 194.018 124.161 196.541 119.382C195.342 115.021 194.004 111.942 192.777 113.196Z" fill="black"/>
<path d="M245.617 96.2679C245.617 96.2679 256.882 108.988 246.245 187.665H189.612C189.222 178.985 194.687 136.63 186.308 95.7106C192.566 94.5113 198.895 93.7155 205.255 93.3281C213.265 92.861 221.295 92.861 229.305 93.3281C234.81 93.8852 240.264 94.868 245.617 96.2679Z" fill="#F03A31"/>
<path opacity="0.5" d="M245.617 96.2679C245.617 96.2679 256.882 108.988 246.245 187.665H189.612C189.222 178.985 194.687 136.63 186.308 95.7106C192.566 94.5113 198.895 93.7155 205.255 93.3281C213.265 92.861 221.295 92.861 229.305 93.3281C234.81 93.8852 240.264 94.868 245.617 96.2679Z" fill="black"/>
<path opacity="0.3" d="M237.238 121.346C238.298 132.827 245.603 147.414 249.869 154.004C250.427 146.425 250.706 139.821 250.804 134.053L237.238 121.346Z" fill="black"/>
<path d="M231.619 104.404C224.802 117.292 260.396 159.201 260.396 159.201L272.818 146.662C272.818 146.662 256.687 118.462 252.895 105.937C248.169 90.4022 236.806 94.6099 231.619 104.404Z" fill="#F03A31"/>
<path opacity="0.5" d="M231.619 104.404C224.802 117.292 260.396 159.201 260.396 159.201L272.818 146.662C272.818 146.662 256.687 118.462 252.895 105.937C248.169 90.4022 236.806 94.6099 231.619 104.404Z" fill="black"/>
<path d="M272.33 144.098C272.33 144.098 261.539 156.122 257.747 158.031C258.653 160.065 263.561 164.844 265.791 164.997C268.022 165.15 278.074 153.949 278.116 151.622C278.158 149.295 272.33 144.098 272.33 144.098Z" fill="#2D1111"/>
<path opacity="0.6" d="M272.33 144.098C272.33 144.098 261.539 156.122 257.747 158.031C258.653 160.065 263.561 164.844 265.791 164.997C268.022 165.15 278.074 153.949 278.116 151.622C278.158 149.295 272.33 144.098 272.33 144.098Z" fill="#F03A31"/>
<path d="M316.331 171.128L326.579 166.711L329.757 177.857C329.757 177.857 321.95 182.956 315.676 178.484L316.331 171.128Z" fill="#FFC3BD"/>
<path d="M337.997 171.991C337.918 172.046 337.828 172.085 337.734 172.105C337.639 172.125 337.542 172.126 337.447 172.108C337.352 172.089 337.262 172.053 337.182 171.999C337.102 171.946 337.033 171.877 336.979 171.796L325.603 154.938C325.495 154.777 325.455 154.58 325.492 154.389C325.528 154.199 325.638 154.031 325.798 153.921C325.959 153.813 326.156 153.774 326.347 153.81C326.537 153.847 326.705 153.956 326.816 154.116L338.206 170.974C338.261 171.054 338.298 171.144 338.317 171.239C338.336 171.334 338.336 171.432 338.317 171.527C338.297 171.622 338.259 171.712 338.204 171.791C338.149 171.871 338.079 171.939 337.997 171.991Z" fill="#2D1111"/>
<path d="M337.384 167.533L341.887 174.193L329.771 177.815L326.579 166.711L337.384 167.533Z" fill="#FFC3BD"/>
<path opacity="0.2" d="M230.239 432.084L229.695 444.707H219.113L219.643 432.084H230.239Z" fill="black"/>
<path opacity="0.2" d="M151.425 425.466L161.77 427.709L156.416 439.455L146.071 437.225L151.425 425.466Z" fill="black"/>
<path d="M212.24 54.1638C210.26 64.4599 208.573 70.3952 212.365 76.9156C218.068 86.6684 231.787 85.2752 236.82 75.7871C241.337 67.2325 243.791 51.8231 234.924 45.233C232.967 43.7719 230.669 42.8349 228.248 42.5107C225.827 42.1865 223.364 42.486 221.091 43.3807C218.818 44.2754 216.812 45.7357 215.263 47.6229C213.714 49.5101 212.673 51.7616 212.24 54.1638Z" fill="#FFC3BD"/>
<path d="M208.169 49.1062C215.628 46.6541 229.765 41.4154 234.756 53.3974C239.748 65.3794 219.42 77.9187 214.261 77.9326C210.107 77.9466 199.971 51.7812 208.169 49.1062Z" fill="#2D1111"/>
<path d="M223.714 54.108C238.325 62.1192 251.529 50.6109 245.659 37.584C239.789 24.557 226.795 26.4379 230.825 32.7912C234.854 39.1444 223.7 29.517 216.018 32.4707C210.609 34.5467 217.621 37.9462 218.277 40.3844C218.932 42.8226 204.153 42.9062 202.16 46.5983C200.166 50.2905 207.304 57.9255 210.929 56.7273C214.554 55.5291 221.093 52.6729 223.714 54.108Z" fill="#2D1111"/>
<path d="M227.925 60.2801C227.456 62.8439 227.838 65.4905 229.012 67.8176C230.602 70.8689 233.334 69.9493 234.589 67.0653C235.649 64.4599 236.109 59.7507 233.738 57.6747C231.368 55.5988 228.552 57.2568 227.925 60.2801Z" fill="#FFC3BD"/>
<path d="M226.168 187.61C226.168 187.61 214.164 268.418 207.569 298.694C200.361 331.84 161.728 438.117 161.728 438.117L142.781 434.021C142.781 434.021 171.682 334.515 175.809 301.662C180.271 266.036 189.626 187.582 189.626 187.582L226.168 187.61Z" fill="#2D1111"/>
<path d="M166.287 431.792C166.371 431.792 162.76 438.633 162.76 438.633L141.456 434.035L143.241 427.626L166.287 431.792Z" fill="#F03A31"/>
<path opacity="0.3" d="M218.583 216.394C204.641 219.181 206.175 270.857 207.834 297.482C211.849 278.659 217.705 242.462 221.776 216.771C220.787 216.281 219.659 216.148 218.583 216.394Z" fill="black"/>
<path d="M246.245 187.61C246.245 187.61 247.639 266.663 246.551 298.903C245.352 332.452 233.641 442.269 233.641 442.269H215.711C215.711 442.269 215.056 334.403 214.317 301.466C213.439 265.562 209.103 187.61 209.103 187.61H246.245Z" fill="#2D1111"/>
<path d="M237.085 435.135C237.168 435.135 236.081 442.562 236.081 442.562H214.275L213.676 435.93L237.085 435.135Z" fill="#F03A31"/>
</g>
<defs>
<clipPath id="clip0">
<rect y="0.133301" width="550" height="483" fill="white"/>
</clipPath>
</defs>
</svg>
