<svg width="220" height="64" viewBox="0 0 220 64" fill="none" xmlns="http://www.w3.org/2000/svg">
<path d="M85.1349 2.80603H76.0637V8.124H79.2786C80.2724 8.10263 81.2637 8.22953 82.22 8.5005C82.9545 8.70876 83.6403 9.06067 84.2378 9.53585C84.7443 9.95124 85.1412 10.4845 85.3937 11.0889C85.6437 11.7074 85.7696 12.369 85.7643 13.0361C85.7761 13.8221 85.629 14.6025 85.332 15.3303C85.0502 16.0072 84.6176 16.6108 84.0672 17.0951C83.4716 17.6059 82.7765 17.9875 82.0259 18.2158C81.1318 18.4869 80.2011 18.6179 79.2669 18.6041H73.1224V0.5H85.1349V2.80603ZM76.0637 10.4536V16.2804H79.2669C79.8338 16.2935 80.3993 16.2191 80.9435 16.0598C81.3581 15.9393 81.7408 15.7283 82.0641 15.4421C82.3426 15.1866 82.5555 14.8678 82.6847 14.5126C82.8189 14.1351 82.8847 13.7367 82.8789 13.3361C82.8856 12.9224 82.8219 12.5107 82.6906 12.1184C82.5722 11.7643 82.3597 11.4491 82.0759 11.2065C81.7517 10.9331 81.3725 10.7325 80.964 10.6183C80.4162 10.4741 79.8509 10.4067 79.2845 10.4183L76.0637 10.4536Z" fill="black"/>
<path d="M99.6145 5.7937V18.6033H96.9114V7.88207H93.3435C93.2646 9.26975 93.1115 10.6522 92.8846 12.0235C92.7183 13.022 92.4724 14.0056 92.1493 14.9649C91.9172 15.6597 91.5916 16.3197 91.1816 16.9267C90.8778 17.3747 90.4998 17.7676 90.0639 18.0886C89.6997 18.3518 89.2867 18.5397 88.8491 18.6416C88.4386 18.7329 88.0195 18.7792 87.599 18.7798C86.7872 18.7798 86.3813 18.6445 86.3813 18.3768V16.6767H87.0843C87.3722 16.6759 87.6581 16.6292 87.9314 16.5385C88.2516 16.4279 88.5395 16.2399 88.7697 15.9914C89.085 15.6506 89.345 15.2626 89.5403 14.8413C89.8341 14.2157 90.0618 13.5611 90.2198 12.8883C90.4546 11.9189 90.6334 10.9368 90.7551 9.9469C90.9061 8.788 91.0228 7.40361 91.1051 5.7937H99.6145Z" fill="black"/>
<path d="M102.906 18.6154V5.79398H105.609V13.8239C105.609 14.0092 105.609 14.2063 105.577 14.4122C105.545 14.6181 105.53 14.8416 105.495 15.0593C105.636 14.7251 105.808 14.4051 106.009 14.1033C106.009 14.1033 106.106 13.9651 106.274 13.7415L106.921 12.8591C107.186 12.5003 107.48 12.0924 107.804 11.6355C108.133 11.1796 108.471 10.7119 108.813 10.2325C109.626 9.12066 110.544 7.8647 111.566 6.46461C111.674 6.28798 111.81 6.13005 111.969 5.99694C112.125 5.85993 112.326 5.78462 112.533 5.78516H114.169V18.6036H111.477V10.5737C111.477 10.4051 111.486 10.2168 111.504 10.009C111.519 9.79717 111.545 9.58539 111.577 9.36773C111.495 9.5501 111.41 9.7207 111.327 9.87659C111.251 10.0177 111.167 10.1542 111.074 10.2854C111.06 10.2854 110.969 10.4237 110.804 10.656C110.639 10.8884 110.427 11.1796 110.163 11.5385L109.28 12.7621C108.945 13.2209 108.607 13.6856 108.262 14.1651C107.451 15.2808 106.537 16.5378 105.521 17.9359C105.411 18.1074 105.276 18.262 105.121 18.3948C104.965 18.5351 104.763 18.6126 104.553 18.6124L102.906 18.6154Z" fill="black"/>
<path d="M116.693 7.14192C117.213 6.66034 117.819 6.27937 118.478 6.01832C119.284 5.71186 120.142 5.56501 121.005 5.58595C121.711 5.57849 122.414 5.67765 123.09 5.88008C123.637 6.04011 124.152 6.29498 124.611 6.63307C125 6.92198 125.319 7.29373 125.546 7.72137C125.757 8.11503 125.867 8.55449 125.867 9.00086C125.865 9.26262 125.828 9.52291 125.755 9.77444C125.674 10.0504 125.548 10.3115 125.384 10.548C125.197 10.8112 124.971 11.0443 124.714 11.2392C124.401 11.4752 124.051 11.658 123.678 11.7804C124.38 11.9941 125.008 12.402 125.487 12.957C125.935 13.5084 126.168 14.2032 126.143 14.913C126.153 15.487 126.008 16.0532 125.723 16.5513C125.442 17.035 125.061 17.4532 124.605 17.7779C124.117 18.1243 123.573 18.383 122.996 18.5426C122.381 18.7199 121.745 18.809 121.105 18.8074C120.694 18.8059 120.283 18.7705 119.878 18.7015C119.448 18.6289 119.027 18.5106 118.622 18.3485C118.2 18.1825 117.797 17.9694 117.422 17.7132C117.03 17.4476 116.678 17.1266 116.378 16.7602L117.157 15.766C117.208 15.6803 117.281 15.6102 117.369 15.5634C117.456 15.5167 117.555 15.4952 117.655 15.5013C117.842 15.5078 118.022 15.5737 118.169 15.6895C118.346 15.813 118.555 15.9513 118.793 16.1042C119.067 16.2718 119.358 16.4107 119.661 16.519C120.067 16.6557 120.494 16.7194 120.922 16.7072C121.3 16.7127 121.677 16.6622 122.04 16.5572C122.342 16.4684 122.623 16.3226 122.87 16.1278C123.089 15.9548 123.265 15.7333 123.384 15.4807C123.503 15.2277 123.564 14.9513 123.561 14.6718C123.568 14.4058 123.508 14.1422 123.386 13.9056C123.264 13.669 123.085 13.4671 122.864 13.3188C122.399 12.9893 121.669 12.8246 120.672 12.8246H119.225V11.0392H120.672C121.379 11.0802 122.082 10.9147 122.696 10.5627C122.913 10.4366 123.094 10.2561 123.22 10.039C123.347 9.82188 123.414 9.57561 123.417 9.32441C123.416 9.09268 123.36 8.86451 123.252 8.65955C123.143 8.45459 122.987 8.27899 122.796 8.14787C122.38 7.8302 121.758 7.67137 120.928 7.67137C120.523 7.66279 120.119 7.71131 119.728 7.8155C119.441 7.89483 119.161 8.00018 118.893 8.13022C118.666 8.24199 118.475 8.34494 118.322 8.42436C118.201 8.50609 118.06 8.55382 117.913 8.5626C117.802 8.56652 117.691 8.54117 117.593 8.48907C117.471 8.40889 117.37 8.30103 117.299 8.17434L116.693 7.14192Z" fill="black"/>
<path d="M136.479 6.51461C136.614 6.29468 136.802 6.11251 137.026 5.98517C137.245 5.8556 137.493 5.78655 137.747 5.78516H139.859L136.715 10.5972C136.541 10.8859 136.329 11.15 136.085 11.3826C135.854 11.5936 135.58 11.753 135.282 11.8502C135.659 11.949 136.009 12.1309 136.306 12.3826C136.599 12.6487 136.848 12.9606 137.041 13.3062L140.221 18.6007H138.359C137.974 18.6216 137.59 18.5393 137.247 18.3624C136.968 18.1882 136.737 17.9464 136.576 17.6594L134.4 13.9121C134.245 13.6138 134.004 13.3689 133.709 13.2091C133.41 13.0548 133.077 12.977 132.741 12.9827H131.479V18.6154H128.776V5.79398H131.479V11.1767H132.573C132.88 11.1878 133.184 11.1189 133.456 10.9767C133.705 10.8247 133.913 10.6123 134.059 10.359L136.479 6.51461Z" fill="black"/>
<path d="M142.118 18.6154V5.79398H144.819V13.8239C144.819 14.0092 144.819 14.2063 144.789 14.4122C144.76 14.6181 144.739 14.8416 144.707 15.0593C144.847 14.7246 145.019 14.4044 145.221 14.1033C145.221 14.1033 145.319 13.9651 145.486 13.7415L146.133 12.8591C146.398 12.5003 146.692 12.0924 147.016 11.6355C147.348 11.1796 147.683 10.7119 148.028 10.2325C148.841 9.12066 149.759 7.8647 150.781 6.46461C150.89 6.28776 151.027 6.12981 151.187 5.99694C151.343 5.85993 151.544 5.78462 151.751 5.78516H153.384V18.6036H150.684V10.5737C150.684 10.406 150.684 10.2178 150.707 10.009C150.731 9.80011 150.751 9.58539 150.784 9.36773C150.701 9.5501 150.616 9.7207 150.531 9.87659C150.456 10.0182 150.373 10.1548 150.281 10.2854C150.263 10.2854 150.175 10.4237 150.01 10.656C149.845 10.8884 149.634 11.1796 149.369 11.5385L148.486 12.7621C148.151 13.2209 147.813 13.6856 147.469 14.1651C146.655 15.2808 145.741 16.5378 144.727 17.9359C144.616 18.1067 144.481 18.2611 144.327 18.3948C144.171 18.5341 143.969 18.6115 143.76 18.6124L142.118 18.6154Z" fill="black"/>
<path d="M162.049 5.58645C162.795 5.57863 163.537 5.70824 164.237 5.96883C164.889 6.21274 165.481 6.59621 165.969 7.09243C166.472 7.61181 166.86 8.23114 167.108 8.91019C167.392 9.69304 167.531 10.5215 167.516 11.3545C167.541 11.642 167.494 11.9312 167.378 12.1957C167.32 12.272 167.243 12.3319 167.155 12.3696C167.067 12.4072 166.971 12.4213 166.875 12.4104H158.64C158.658 13.0543 158.773 13.6918 158.981 14.3017C159.147 14.7906 159.41 15.2409 159.754 15.6253C160.071 15.9762 160.467 16.2455 160.91 16.4107C161.39 16.5894 161.899 16.6772 162.41 16.6695C162.874 16.6781 163.336 16.6166 163.781 16.4871C164.128 16.3839 164.466 16.251 164.79 16.09C165.084 15.943 165.316 15.8106 165.519 15.69C165.683 15.5792 165.875 15.516 166.072 15.5077C166.17 15.5041 166.268 15.5251 166.356 15.5688C166.443 15.6124 166.519 15.6774 166.575 15.7577L167.34 16.7519C167.029 17.1212 166.666 17.4424 166.261 17.7049C165.859 17.966 165.429 18.1792 164.978 18.3402C164.526 18.5046 164.059 18.6228 163.584 18.6931C163.121 18.7625 162.654 18.7979 162.187 18.799C161.342 18.8054 160.504 18.6517 159.716 18.3461C158.97 18.0588 158.296 17.6109 157.742 17.0342C157.16 16.4177 156.715 15.6849 156.436 14.8841C156.107 13.9391 155.947 12.9434 155.963 11.9427C155.956 11.095 156.099 10.2528 156.383 9.45434C156.649 8.71107 157.06 8.02814 157.592 7.44539C158.128 6.86652 158.778 6.4057 159.501 6.09236C160.306 5.74759 161.173 5.57524 162.049 5.58645ZM162.099 7.5601C161.676 7.53653 161.254 7.59893 160.856 7.74353C160.459 7.88813 160.095 8.11192 159.787 8.40133C159.185 9.04941 158.811 9.87514 158.719 10.7544H165.09C165.093 10.3251 165.028 9.89808 164.896 9.48963C164.775 9.11605 164.581 8.77015 164.325 8.47192C164.066 8.17894 163.746 7.9469 163.387 7.79247C162.978 7.62691 162.539 7.54779 162.099 7.5601Z" fill="black"/>
<path d="M84.1544 28.9931H76.0745V44.7912H73.1331V26.693H84.1662L84.1544 28.9931Z" fill="black"/>
<path d="M87.4119 31.77C88.291 31.7573 89.1642 31.9162 89.9826 32.2376C90.7233 32.5298 91.3917 32.9794 91.9415 33.5554C92.4988 34.1515 92.9246 34.8579 93.1916 35.629C93.78 37.4082 93.78 39.3296 93.1916 41.1088C92.924 41.8813 92.4982 42.5895 91.9415 43.1883C91.3929 43.7679 90.7244 44.2206 89.9826 44.5149C88.3208 45.1346 86.4912 45.1346 84.8293 44.5149C84.0849 44.2207 83.4135 43.7681 82.8616 43.1883C82.3028 42.5901 81.875 41.8818 81.6056 41.1088C81.0173 39.3296 81.0173 37.4082 81.6056 35.629C81.8747 34.8576 82.3025 34.1511 82.8616 33.5554C83.4147 32.9792 84.086 32.5297 84.8293 32.2376C85.6516 31.9153 86.5288 31.7565 87.4119 31.77ZM87.4119 42.8677C88.5688 42.8677 89.4296 42.4804 89.9944 41.7059C90.5591 40.9313 90.8415 39.8234 90.8415 38.3821C90.8415 36.9409 90.5591 35.8281 89.9944 35.0437C89.4296 34.2593 88.5688 33.8672 87.4119 33.8672C86.2353 33.8672 85.3637 34.2593 84.797 35.0437C84.2303 35.8281 83.946 36.9409 83.944 38.3821C83.944 39.8234 84.2283 40.9313 84.797 41.7059C85.3657 42.4804 86.2373 42.8638 87.4119 42.856V42.8677Z" fill="black"/>
<path d="M96.2222 49.0504V31.9729H97.8547C98.0147 31.959 98.1743 32.0034 98.3041 32.098C98.4338 32.1927 98.525 32.3311 98.5606 32.4877L98.7724 33.8319C99.0368 33.5273 99.3228 33.2422 99.6283 32.9789C99.9269 32.7207 100.253 32.4967 100.602 32.3112C100.956 32.1252 101.331 31.9821 101.72 31.8847C102.137 31.7824 102.566 31.732 102.996 31.7347C103.675 31.7254 104.346 31.8734 104.958 32.167C105.56 32.4649 106.081 32.9027 106.479 33.4436C106.93 34.0623 107.261 34.7609 107.452 35.5025C107.697 36.4184 107.814 37.3637 107.799 38.3115C107.806 39.2082 107.677 40.1007 107.417 40.9588C107.185 41.7289 106.812 42.449 106.317 43.0824C105.839 43.6931 105.226 44.1843 104.525 44.5171C103.825 44.85 103.057 45.0153 102.281 45.0002C101.66 45.027 101.04 44.9198 100.463 44.6858C99.8866 44.4519 99.3672 44.0966 98.94 43.6442V49.071L96.2222 49.0504ZM102.09 33.9083C101.467 33.8899 100.85 34.0436 100.308 34.3525C99.7715 34.6882 99.3027 35.1212 98.9253 35.629V41.5735C99.2455 42.0134 99.6714 42.3654 100.164 42.5971C100.634 42.7982 101.141 42.8984 101.652 42.8912C102.127 42.9132 102.6 42.8198 103.031 42.619C103.461 42.4182 103.837 42.116 104.126 41.7382C104.714 40.9676 105.008 39.8195 105.008 38.2939C105.02 37.6157 104.951 36.9385 104.805 36.2761C104.698 35.7886 104.499 35.3262 104.217 34.9143C103.986 34.5798 103.669 34.3145 103.299 34.1466C102.917 33.9845 102.505 33.9033 102.09 33.9083Z" fill="black"/>
<path d="M110.395 44.8039V31.9737H113.098V40.0036C113.098 40.2001 113.087 40.3965 113.066 40.5919C113.045 40.8066 113.018 41.0213 112.986 41.239C113.126 40.9043 113.298 40.5841 113.501 40.283C113.501 40.2683 113.598 40.1448 113.766 39.9183L114.413 39.0359L115.295 37.8123L116.307 36.4093L119.06 32.6384C119.168 32.4634 119.303 32.3065 119.46 32.1737C119.617 32.0363 119.819 31.9609 120.028 31.9619H121.66V44.7804H118.957V36.7505C118.957 36.5828 118.957 36.3945 118.984 36.1828C119.01 35.971 119.025 35.7622 119.06 35.5416C118.975 35.7269 118.892 35.8975 118.807 36.0504C118.733 36.1922 118.65 36.3288 118.557 36.4593C118.539 36.4769 118.448 36.6004 118.286 36.8328C118.125 37.0652 117.91 37.3564 117.645 37.7152L116.745 38.9388C116.413 39.3977 116.072 39.8624 115.727 40.3419L112.989 44.1097C112.879 44.2824 112.743 44.4372 112.586 44.5686C112.432 44.7102 112.231 44.789 112.021 44.7892L110.395 44.8039Z" fill="black"/>
<path d="M124.185 33.328C124.704 32.8465 125.309 32.4655 125.967 32.2044C126.773 31.8957 127.631 31.7478 128.494 31.7691C129.2 31.7599 129.903 31.8591 130.579 32.0632C131.127 32.222 131.642 32.477 132.1 32.8162C132.489 33.1047 132.809 33.4753 133.038 33.9016C133.206 34.2144 133.311 34.5573 133.346 34.9106C133.381 35.2639 133.347 35.6206 133.244 35.9605C133.164 36.2372 133.039 36.4986 132.873 36.7341C132.685 37.0028 132.456 37.24 132.194 37.4371C131.88 37.6725 131.531 37.8553 131.159 37.9783C131.86 38.192 132.488 38.5999 132.968 39.1548C133.418 39.7031 133.655 40.3957 133.635 41.105C133.644 41.6789 133.499 42.2446 133.215 42.7433C132.931 43.2264 132.55 43.6444 132.094 43.9698C131.606 44.3157 131.061 44.5744 130.485 44.7346C129.87 44.9124 129.234 45.0015 128.594 44.9993C128.184 44.9979 127.774 44.9625 127.37 44.8934C126.939 44.8209 126.517 44.7026 126.111 44.5405C125.689 44.3745 125.288 44.1614 124.914 43.9051C124.521 43.6411 124.169 43.3199 123.87 42.9521L124.649 41.958C124.702 41.874 124.777 41.8063 124.866 41.7621C124.954 41.718 125.054 41.6993 125.152 41.7079C125.34 41.7145 125.52 41.7804 125.667 41.8962C125.844 42.0197 126.049 42.158 126.288 42.3109C126.562 42.478 126.853 42.6169 127.155 42.7257C127.563 42.8609 127.991 42.9246 128.42 42.9139C128.798 42.9194 129.175 42.8689 129.538 42.7639C129.839 42.6751 130.121 42.5293 130.367 42.3345C130.59 42.1591 130.769 41.9346 130.891 41.6785C131.01 41.4256 131.07 41.1491 131.067 40.8697C131.075 40.6036 131.015 40.34 130.893 40.1035C130.771 39.8669 130.591 39.665 130.37 39.5166C129.906 39.1872 129.173 39.0195 128.176 39.0195H126.732V37.2371H128.176C128.883 37.2791 129.587 37.1124 130.2 36.7576C130.41 36.6383 130.586 36.4673 130.712 36.2608C130.837 36.0544 130.908 35.8193 130.917 35.5779C130.927 35.3364 130.875 35.0965 130.765 34.8809C130.656 34.6653 130.494 34.4811 130.294 34.3457C129.878 34.0281 129.256 33.8692 128.429 33.8692C128.023 33.8607 127.618 33.9092 127.226 34.0134C126.939 34.0932 126.659 34.1985 126.391 34.3281C126.164 34.4399 125.976 34.5428 125.82 34.6222C125.699 34.7043 125.557 34.7521 125.411 34.7605C125.3 34.7644 125.189 34.739 125.091 34.6869C124.969 34.6068 124.868 34.4989 124.796 34.3722L124.185 33.328Z" fill="black"/>
<path d="M141.802 31.7699C142.681 31.7573 143.555 31.9161 144.373 32.2376C145.114 32.529 145.783 32.9788 146.332 33.5553C146.889 34.1515 147.315 34.8579 147.582 35.629C148.17 37.4082 148.17 39.3295 147.582 41.1087C147.314 41.8813 146.889 42.5895 146.332 43.1883C145.784 43.7685 145.115 44.2213 144.373 44.5148C142.711 45.1346 140.882 45.1346 139.22 44.5148C138.475 44.2207 137.804 43.768 137.252 43.1883C136.693 42.59 136.265 41.8818 135.996 41.1087C135.408 39.3295 135.408 37.4082 135.996 35.629C136.265 34.8576 136.693 34.1511 137.252 33.5553C137.805 32.9792 138.476 32.5297 139.22 32.2376C140.042 31.9155 140.919 31.7567 141.802 31.7699ZM141.802 42.8677C142.957 42.8677 143.818 42.4804 144.385 41.7058C144.952 40.9313 145.234 39.8234 145.232 38.3821C145.232 36.9408 144.95 35.828 144.385 35.0437C143.82 34.2593 142.959 33.8671 141.802 33.8671C140.626 33.8671 139.754 34.2593 139.187 35.0437C138.621 35.828 138.336 36.9408 138.334 38.3821C138.334 39.8234 138.619 40.9313 139.187 41.7058C139.756 42.4804 140.628 42.8638 141.802 42.8559V42.8677Z" fill="black"/>
<path d="M161.546 31.9739V44.7923H158.857V38.9743H153.316V44.7923H150.613V31.9739H153.316V36.9389H158.857V31.9739H161.546Z" fill="black"/>
<path d="M163.519 31.9739H175.684V34.0093H170.961V44.7923H168.246V34.0093H163.519V31.9739Z" fill="black"/>
<path d="M180.223 31.9739V36.8507H182.711C183.474 36.8314 184.234 36.9398 184.961 37.1713C185.506 37.3507 186.008 37.6434 186.432 38.0301C186.799 38.3765 187.078 38.8049 187.247 39.2802C187.414 39.7525 187.499 40.2499 187.5 40.7509C187.506 41.3098 187.399 41.8642 187.185 42.3804C186.976 42.8687 186.661 43.304 186.261 43.654C185.825 44.0322 185.317 44.3174 184.767 44.4923C184.109 44.6974 183.423 44.7967 182.735 44.7864H177.658V31.9739H180.223ZM180.223 38.7978V42.8304H182.746C183.099 42.8379 183.45 42.7852 183.785 42.6745C184.058 42.5831 184.31 42.4381 184.526 42.248C184.721 42.0693 184.872 41.8478 184.967 41.6009C185.065 41.3354 185.113 41.0544 185.111 40.7715C185.113 40.5117 185.068 40.2537 184.979 40.0097C184.891 39.7717 184.749 39.5573 184.564 39.3832C184.353 39.1887 184.102 39.0422 183.829 38.9537C183.471 38.8421 183.098 38.7895 182.723 38.7978H180.223ZM192.765 31.9739V44.7923H190.062V31.9739H192.765Z" fill="black"/>
<path d="M78.5786 53.8885C78.6078 53.8382 78.6468 53.7942 78.6933 53.7591C78.7365 53.7217 78.7921 53.7018 78.8492 53.7032H79.2816V61.8684H78.6933V55.1651C78.6933 55.0415 78.6933 54.915 78.6933 54.7856C78.6971 54.6518 78.7079 54.5183 78.7256 54.3856C78.6727 54.5032 78.6197 54.6121 78.5668 54.7121C78.5109 54.8091 78.458 54.9003 78.405 54.9856L73.6989 61.6831C73.6669 61.7332 73.6272 61.7779 73.5812 61.8155C73.5352 61.8495 73.4796 61.868 73.4224 61.8684H72.9871V53.7032H73.5753V60.4095C73.5753 60.533 73.5753 60.6566 73.5753 60.786C73.5753 60.9154 73.5577 61.0507 73.54 61.189C73.5881 61.0773 73.6421 60.9683 73.7018 60.8625C73.7548 60.7654 73.8077 60.6713 73.8636 60.583L78.5786 53.8885Z" fill="black"/>
<path d="M85.8573 56.1278V61.8693H85.2984V58.9898H81.8953V61.8693H81.3394V56.1278H81.8953V58.5691H85.2984V56.1278H85.8573Z" fill="black"/>
<path d="M87.7523 56.1281H89.6612C89.9589 56.1219 90.2559 56.1576 90.5436 56.234C90.7573 56.292 90.9573 56.392 91.1319 56.5282C91.2756 56.6394 91.3889 56.7851 91.4613 56.9517C91.5316 57.1111 91.5677 57.2834 91.5672 57.4576C91.5654 57.5949 91.5456 57.7314 91.5084 57.8635C91.4682 58.0098 91.4014 58.1474 91.3113 58.2694C91.21 58.4075 91.0844 58.5261 90.9407 58.6195C90.7605 58.7317 90.561 58.8095 90.3524 58.8489C90.7766 58.8709 91.1809 59.0357 91.4996 59.3166C91.6212 59.4382 91.7168 59.5834 91.7805 59.7432C91.8442 59.903 91.8747 60.0741 91.8702 60.246C91.8738 60.4843 91.8214 60.72 91.7172 60.9343C91.6153 61.1356 91.4683 61.3107 91.2878 61.4461C91.0908 61.5918 90.8683 61.6995 90.6319 61.7638C90.356 61.8394 90.0708 61.8761 89.7848 61.8726H87.7493L87.7523 56.1281ZM88.2817 58.7077H89.6436C89.8428 58.7113 90.0413 58.6835 90.2318 58.6253C90.3984 58.5763 90.5535 58.4943 90.6878 58.3842C90.8124 58.2843 90.913 58.1576 90.9819 58.0135C91.0562 57.8637 91.0935 57.6983 91.0907 57.5312C91.0914 57.4011 91.0664 57.2722 91.0172 57.1517C90.9652 57.0254 90.8823 56.9141 90.776 56.8282C90.6446 56.7225 90.4937 56.6435 90.3319 56.5958C90.111 56.5329 89.8819 56.5041 89.6524 56.5105H88.2905L88.2817 58.7077ZM88.2817 59.0783V61.4785H89.7818C90.0046 61.4813 90.2265 61.4515 90.4407 61.3902C90.6214 61.3423 90.7905 61.2583 90.9378 61.1431C91.0692 61.0372 91.1756 60.9036 91.2496 60.7519C91.3225 60.5902 91.3596 60.4146 91.3584 60.2372C91.3602 60.0754 91.3312 59.9147 91.2731 59.7636C91.2132 59.6199 91.1181 59.4934 90.9966 59.396C90.8533 59.2859 90.6892 59.2059 90.5142 59.1607C90.2808 59.1012 90.0403 59.0735 89.7995 59.0783H88.2817Z" fill="black"/>
<path d="M95.6413 56.036C95.9493 56.0336 96.2549 56.0905 96.5414 56.2037C96.8131 56.3129 97.0587 56.4783 97.262 56.689C97.4739 56.9168 97.6379 57.1849 97.7444 57.4773C97.8675 57.8216 97.9273 58.1853 97.9209 58.5509C97.9272 58.611 97.9149 58.6715 97.8856 58.7244C97.8713 58.7412 97.8531 58.7543 97.8326 58.7626C97.8121 58.7708 97.7899 58.7738 97.7679 58.7715H93.5912V58.8803C93.5847 59.2641 93.6353 59.6467 93.7412 60.0156C93.8259 60.3163 93.971 60.5966 94.1677 60.8392C94.3479 61.0572 94.5779 61.2287 94.8383 61.3393C95.1178 61.4551 95.4182 61.5121 95.7207 61.5069C95.9742 61.5116 96.2269 61.4789 96.4708 61.4098C96.6559 61.3575 96.8353 61.2865 97.0061 61.1981C97.1252 61.1354 97.2393 61.0636 97.3473 60.9834C97.399 60.9352 97.4632 60.9026 97.5326 60.8892C97.5549 60.8878 97.5772 60.8923 97.5973 60.9021C97.6175 60.9118 97.6347 60.9267 97.6473 60.9451L97.7973 61.1304C97.6931 61.2564 97.5701 61.3655 97.4326 61.454C97.273 61.5578 97.1023 61.6437 96.9238 61.7099C96.7329 61.7835 96.5361 61.8405 96.3355 61.8805C96.1236 61.9241 95.9077 61.9458 95.6913 61.9452C95.3233 61.9488 94.9583 61.8788 94.6177 61.7393C94.3002 61.6087 94.0165 61.4075 93.7883 61.151C93.5409 60.8687 93.3546 60.5382 93.2412 60.1804C93.1112 59.7595 93.0487 59.3207 93.0559 58.8803C93.0526 58.4931 93.1112 58.1078 93.2294 57.739C93.3382 57.4085 93.5111 57.1026 93.7383 56.839C93.9643 56.5865 94.2422 56.3858 94.553 56.2507C94.8969 56.1043 95.2676 56.0311 95.6413 56.036ZM95.6413 56.4448C95.3693 56.441 95.099 56.4879 94.8442 56.5831C94.6183 56.6703 94.4129 56.8035 94.2412 56.9743C94.066 57.155 93.9255 57.3664 93.8265 57.5979C93.7164 57.8576 93.645 58.1321 93.6147 58.4126H97.4385C97.4423 58.1318 97.3985 57.8523 97.3091 57.5861C97.2315 57.3557 97.1062 57.1442 96.9414 56.9655C96.7845 56.7961 96.5929 56.6626 96.3796 56.5743C96.1468 56.4819 95.8976 56.4379 95.6472 56.4448H95.6413Z" fill="black"/>
<path d="M103.273 56.895C103.256 56.9133 103.238 56.93 103.217 56.945C103.197 56.9593 103.172 56.9665 103.147 56.9656C103.088 56.9556 103.034 56.9279 102.991 56.8862C102.908 56.8218 102.819 56.7647 102.726 56.7156C102.592 56.6453 102.451 56.5882 102.306 56.545C101.812 56.4161 101.289 56.4512 100.817 56.645C100.565 56.7596 100.343 56.9319 100.17 57.148C99.9837 57.3839 99.8467 57.655 99.7673 57.9451C99.674 58.2872 99.6285 58.6406 99.632 58.9952C99.6262 59.358 99.6738 59.7197 99.7731 60.0688C99.8549 60.3552 99.9918 60.623 100.176 60.857C100.343 61.0673 100.558 61.2347 100.803 61.3453C101.061 61.4594 101.341 61.5166 101.623 61.513C101.859 61.5183 102.093 61.4845 102.317 61.413C102.479 61.3604 102.634 61.2893 102.779 61.2012C102.884 61.1391 102.982 61.0672 103.073 60.9865C103.118 60.9349 103.18 60.9006 103.247 60.8894C103.269 60.889 103.292 60.8939 103.312 60.9036C103.333 60.9133 103.351 60.9276 103.365 60.9453L103.506 61.1306C103.411 61.2535 103.299 61.3624 103.173 61.4541C103.032 61.5571 102.879 61.6439 102.717 61.713C102.539 61.7886 102.354 61.8458 102.164 61.8836C101.96 61.9255 101.752 61.9462 101.544 61.9453C101.2 61.949 100.86 61.8809 100.544 61.7453C100.243 61.6109 99.9762 61.4097 99.7643 61.1571C99.5364 60.8845 99.3644 60.5697 99.2584 60.2305C99.1302 59.8275 99.0686 59.4063 99.076 58.9834C99.0719 58.5768 99.1304 58.1721 99.2496 57.7833C99.3546 57.4411 99.5266 57.1232 99.7555 56.848C99.9791 56.5865 100.259 56.3784 100.573 56.2391C100.922 56.0896 101.299 56.0164 101.679 56.0244C102.018 56.0176 102.355 56.0786 102.67 56.2038C102.95 56.3163 103.207 56.4798 103.426 56.6862L103.273 56.895Z" fill="black"/>
<path d="M104.095 56.1278H109.448V56.5484H107.048V61.8693H106.495V56.5484H104.095V56.1278Z" fill="black"/>
<path d="M110.595 61.8693V56.1278H111.148V60.7575C111.148 60.8105 111.148 60.8663 111.148 60.9281C111.145 60.9882 111.139 61.0481 111.13 61.1075C111.153 61.0592 111.179 61.0121 111.207 60.9663L111.28 60.8487C111.28 60.8487 111.336 60.7693 111.439 60.634C111.542 60.4987 111.674 60.3251 111.836 60.1075L112.389 59.3721C112.592 59.0986 112.801 58.8192 113.018 58.5338L114.719 56.2719C114.743 56.2332 114.773 56.1993 114.81 56.1719C114.843 56.1438 114.884 56.1281 114.927 56.1278H115.245V61.8693H114.698V57.2426C114.698 57.1308 114.698 57.0132 114.713 56.8896C114.693 56.94 114.668 56.9882 114.639 57.0337C114.613 57.0779 114.586 57.1161 114.563 57.1485L114.404 57.3661C114.304 57.5014 114.172 57.6779 114.007 57.8926L113.454 58.628C113.248 58.8986 113.039 59.178 112.827 59.4633L111.124 61.7311C111.1 61.7672 111.071 61.7991 111.036 61.8252C111.003 61.853 110.961 61.8685 110.918 61.8693H110.595Z" fill="black"/>
<path d="M117.117 56.1278H117.673V61.4487H121.082V56.1278H121.638V61.4487H122.688V63.74C122.69 63.7895 122.673 63.8379 122.641 63.8753C122.625 63.8919 122.605 63.9049 122.583 63.9135C122.561 63.9221 122.538 63.9261 122.515 63.9253H122.191V61.8664H117.117V56.1278Z" fill="black"/>
<path d="M123.898 61.8693V56.1278H124.451V60.7575C124.451 60.8105 124.451 60.8663 124.451 60.9281C124.448 60.9882 124.443 61.0481 124.434 61.1075C124.457 61.0592 124.482 61.0121 124.51 60.9663L124.584 60.8487C124.584 60.8487 124.639 60.7693 124.742 60.634C124.845 60.4987 124.978 60.3251 125.139 60.1075L125.692 59.3721C125.895 59.0986 126.104 58.8192 126.322 58.5338L128.022 56.2719C128.046 56.2332 128.077 56.1993 128.113 56.1719C128.146 56.1438 128.188 56.1281 128.231 56.1278H128.537V61.8693H127.99V57.2426C127.99 57.1308 127.99 57.0132 127.99 56.8896C127.97 56.94 127.945 56.9882 127.916 57.0337C127.89 57.0779 127.863 57.1161 127.84 57.1485L127.681 57.3661C127.578 57.5014 127.448 57.6779 127.284 57.8926L126.731 58.628C126.525 58.8986 126.316 59.178 126.104 59.4633L124.419 61.7311C124.395 61.7672 124.365 61.7991 124.331 61.8252C124.298 61.853 124.256 61.8685 124.213 61.8693H123.898Z" fill="black"/>
<path d="M132.708 56.0361C133.087 56.0304 133.463 56.1015 133.814 56.245C134.129 56.3776 134.41 56.5785 134.637 56.8332C134.867 57.1075 135.04 57.4244 135.146 57.7656C135.382 58.5614 135.382 59.4083 135.146 60.204C135.04 60.5444 134.867 60.8603 134.637 61.1335C134.412 61.3901 134.13 61.5914 133.814 61.7218C133.104 62.0004 132.315 62.0004 131.605 61.7218C131.288 61.5915 131.005 61.3903 130.778 61.1335C130.545 60.8621 130.37 60.5458 130.264 60.204C130.032 59.4077 130.032 58.562 130.264 57.7656C130.37 57.4232 130.545 57.106 130.778 56.8332C131.007 56.5784 131.289 56.3775 131.605 56.245C131.955 56.1011 132.33 56.0301 132.708 56.0361ZM132.708 61.5129C133.016 61.5199 133.322 61.4597 133.605 61.3365C133.857 61.2228 134.077 61.0491 134.246 60.8305C134.426 60.5942 134.558 60.3242 134.632 60.0364C134.8 59.3534 134.8 58.6398 134.632 57.9568C134.556 57.6677 134.425 57.3959 134.246 57.1568C134.077 56.9374 133.857 56.7627 133.605 56.6479C133.321 56.5295 133.016 56.4685 132.708 56.4685C132.4 56.4685 132.095 56.5295 131.811 56.6479C131.559 56.7634 131.339 56.938 131.17 57.1568C130.99 57.3959 130.86 57.6677 130.784 57.9568C130.612 58.6393 130.612 59.3539 130.784 60.0364C130.858 60.3242 130.989 60.5942 131.17 60.8305C131.339 61.0484 131.559 61.222 131.811 61.3365C132.094 61.4595 132.4 61.5197 132.708 61.5129Z" fill="black"/>
<path d="M141.394 56.1278V61.8693H140.838V58.9898H137.429V61.8693H136.876V56.1278H137.429V58.5691H140.838V56.1278H141.394Z" fill="black"/>
<path d="M147.804 56.1278V61.8693H147.251V58.9898H143.833V61.8693H143.277V56.1278H143.833V58.5691H147.242V56.1278H147.804Z" fill="black"/>
<path d="M153.244 61.8677C153.195 61.873 153.145 61.8592 153.105 61.8291C153.065 61.7991 153.038 61.7551 153.03 61.706L152.95 60.9736C152.801 61.1201 152.644 61.2585 152.48 61.3883C152.328 61.5092 152.165 61.6137 151.991 61.7001C151.817 61.787 151.632 61.8522 151.441 61.8942C151.23 61.9404 151.014 61.9631 150.797 61.9619C150.603 61.9622 150.409 61.9324 150.224 61.8736C150.044 61.8181 149.877 61.7282 149.732 61.6089C149.584 61.4838 149.465 61.327 149.385 61.15C149.295 60.9373 149.25 60.7077 149.256 60.4765C149.255 60.2359 149.328 60.0008 149.465 59.8029C149.633 59.5701 149.856 59.3831 150.115 59.2587C150.476 59.0839 150.86 58.9602 151.256 58.8911C151.807 58.79 152.366 58.7359 152.927 58.7293V58.141C152.955 57.7049 152.834 57.2721 152.583 56.9145C152.458 56.7683 152.302 56.6533 152.125 56.5787C151.948 56.5041 151.756 56.4721 151.565 56.4851C151.324 56.4787 151.083 56.5176 150.856 56.5998C150.683 56.6654 150.519 56.7502 150.365 56.8527C150.25 56.9313 150.14 57.0167 150.035 57.1086C149.979 57.1707 149.903 57.2113 149.821 57.2233C149.784 57.2253 149.748 57.2149 149.718 57.1939C149.69 57.1737 149.666 57.1488 149.647 57.1204L149.55 56.9527C149.824 56.6718 150.144 56.4409 150.497 56.2703C150.85 56.1127 151.234 56.0344 151.621 56.0409C151.898 56.0356 152.173 56.0856 152.43 56.188C152.657 56.2781 152.859 56.4225 153.018 56.6086C153.167 56.8045 153.274 57.0287 153.333 57.2675C153.414 57.5544 153.452 57.8517 153.447 58.1499V61.8883L153.244 61.8677ZM150.935 61.5736C151.143 61.5754 151.349 61.5517 151.55 61.503C151.73 61.4567 151.904 61.3885 152.068 61.3C152.228 61.2195 152.378 61.1208 152.515 61.0059C152.653 60.8883 152.791 60.7588 152.927 60.6206V59.1264C152.453 59.1346 151.98 59.1758 151.512 59.2499C151.175 59.3003 150.846 59.3922 150.532 59.5235C150.313 59.6124 150.119 59.7538 149.968 59.9353C149.847 60.0921 149.783 60.2847 149.785 60.4823C149.781 60.6531 149.814 60.8228 149.882 60.9794C149.939 61.1128 150.026 61.2315 150.135 61.3265C150.243 61.4175 150.368 61.4855 150.503 61.5265C150.64 61.5577 150.781 61.5696 150.921 61.5618L150.935 61.5736Z" fill="black"/>
<path d="M158.878 61.8698H158.342V59.2902H157.592C157.518 59.2947 157.445 59.3036 157.372 59.3167C157.314 59.3287 157.259 59.3485 157.207 59.3755C157.158 59.4005 157.113 59.4333 157.075 59.4726C157.029 59.5179 156.988 59.5671 156.951 59.6197L155.271 61.6786C155.238 61.7398 155.189 61.7915 155.13 61.8286C155.057 61.8641 154.976 61.8803 154.895 61.8757H154.516L156.46 59.5226C156.555 59.3641 156.705 59.2451 156.88 59.1873C156.606 59.1723 156.335 59.1158 156.077 59.0196C155.877 58.9443 155.692 58.8315 155.533 58.6873C155.403 58.5614 155.302 58.4075 155.239 58.2372C155.176 58.0668 155.144 57.8865 155.145 57.7048C155.147 57.514 155.181 57.3249 155.248 57.146C155.322 56.9552 155.437 56.7833 155.586 56.643C155.759 56.4793 155.963 56.3522 156.186 56.2695C156.479 56.1683 156.788 56.1205 157.098 56.1283H158.881L158.878 61.8698ZM155.674 57.7519C155.672 57.9241 155.71 58.0945 155.786 58.249C155.864 58.3971 155.976 58.5242 156.113 58.6196C156.271 58.7261 156.448 58.8038 156.633 58.849C156.857 58.9055 157.088 58.9332 157.319 58.9314H158.342V56.5136H157.113C156.881 56.5068 156.65 56.5458 156.433 56.6283C156.266 56.6943 156.115 56.7945 155.989 56.9224C155.88 57.0352 155.798 57.1709 155.748 57.3195C155.7 57.4577 155.675 57.6027 155.674 57.749V57.7519Z" fill="black"/>
<path d="M168.422 56.1278V61.8693H167.869V56.5484H164.457V61.8693H163.904V56.1278H168.422Z" fill="black"/>
<path d="M174.993 56.1278V61.8693H174.44V56.5749H172.113C172.085 57.2366 172.022 57.8964 171.925 58.5515C171.852 59.0379 171.745 59.5185 171.604 59.9898C171.502 60.3297 171.363 60.6572 171.189 60.9664C171.061 61.1864 170.9 61.385 170.71 61.5546C170.561 61.6885 170.386 61.7888 170.195 61.8488C170.031 61.9026 169.859 61.9304 169.686 61.9311C169.604 61.9318 169.523 61.9239 169.442 61.9076C169.375 61.8929 169.339 61.8693 169.339 61.837V61.487H169.592C169.737 61.4849 169.881 61.456 170.016 61.4017C170.178 61.3357 170.325 61.2354 170.445 61.1075C170.61 60.9325 170.749 60.7344 170.857 60.5193C171.008 60.2064 171.127 59.8793 171.213 59.5427C171.331 59.0697 171.424 58.5905 171.489 58.1073C171.568 57.5504 171.624 56.8945 171.657 56.1396L174.993 56.1278Z" fill="black"/>
<path d="M180.42 61.8678C180.37 61.873 180.321 61.8593 180.281 61.8292C180.241 61.7992 180.214 61.7552 180.205 61.706L180.126 60.9736C179.977 61.1202 179.819 61.2586 179.655 61.3884C179.504 61.5099 179.341 61.6144 179.167 61.7002C178.993 61.7866 178.809 61.8518 178.62 61.8943C178.407 61.9407 178.19 61.9634 177.973 61.9619C177.779 61.9625 177.587 61.9328 177.402 61.8737C177.222 61.8189 177.054 61.7289 176.908 61.609C176.76 61.4831 176.642 61.3265 176.561 61.1501C176.47 60.9374 176.426 60.7078 176.432 60.4766C176.432 60.2362 176.505 60.0014 176.64 59.803C176.808 59.5702 177.032 59.3832 177.29 59.2588C177.652 59.084 178.036 58.9603 178.432 58.8912C178.983 58.7901 179.542 58.736 180.102 58.7294V58.1411C180.131 57.705 180.01 57.2722 179.758 56.9146C179.634 56.7684 179.477 56.6534 179.301 56.5788C179.124 56.5042 178.932 56.4721 178.741 56.4851C178.499 56.4788 178.259 56.5177 178.032 56.5998C177.859 56.6661 177.695 56.7509 177.54 56.8528C177.426 56.9314 177.316 57.0168 177.211 57.1087C177.155 57.1708 177.079 57.2114 176.996 57.2234C176.96 57.2253 176.923 57.215 176.893 57.194C176.866 57.1747 176.843 57.1496 176.826 57.1205L176.726 56.9528C176.999 56.6719 177.32 56.441 177.673 56.2704C178.026 56.1128 178.41 56.0344 178.796 56.041C179.073 56.0351 179.348 56.0852 179.605 56.1881C179.833 56.2771 180.036 56.4217 180.194 56.6087C180.353 56.8038 180.471 57.0302 180.538 57.2734C180.619 57.5604 180.658 57.8577 180.652 58.1558V61.8943L180.42 61.8678ZM178.111 61.5737C178.318 61.5757 178.525 61.552 178.726 61.5031C178.906 61.4568 179.08 61.3886 179.244 61.3001C179.404 61.2189 179.555 61.1203 179.694 61.006C179.832 60.8884 179.967 60.7589 180.102 60.6207V59.1265C179.629 59.1346 179.156 59.1759 178.688 59.25C178.352 59.3003 178.024 59.3922 177.711 59.5236C177.491 59.613 177.297 59.7543 177.143 59.9353C177.024 60.0925 176.961 60.2851 176.964 60.4824C176.959 60.653 176.991 60.8226 177.058 60.9795C177.115 61.1129 177.202 61.2316 177.311 61.3266C177.419 61.4175 177.544 61.4856 177.679 61.5266C177.82 61.5592 177.966 61.5711 178.111 61.5619V61.5737Z" fill="black"/>
<path d="M181.52 56.1278H186.876V56.5484H184.476V61.8693H183.923V56.5484H181.52V56.1278Z" fill="black"/>
<path d="M190.895 53.7036V56.0567C191.34 56.0608 191.78 56.1404 192.198 56.292C192.554 56.4257 192.877 56.6321 193.148 56.8979C193.407 57.1598 193.608 57.4736 193.737 57.8186C193.999 58.591 193.999 59.4286 193.737 60.2011C193.608 60.5456 193.408 60.8585 193.148 61.1188C192.877 61.3795 192.553 61.58 192.198 61.707C191.78 61.8587 191.34 61.9382 190.895 61.9424V63.9219H190.378V61.9424C189.932 61.939 189.49 61.8595 189.072 61.707C188.718 61.5799 188.395 61.3795 188.125 61.1188C187.865 60.8585 187.664 60.5456 187.536 60.2011C187.274 59.4286 187.274 58.591 187.536 57.8186C187.665 57.4736 187.866 57.1598 188.125 56.8979C188.395 56.6321 188.717 56.4258 189.072 56.292C189.49 56.1396 189.932 56.06 190.378 56.0567V53.7036H190.895ZM187.889 58.9981C187.884 59.3434 187.936 59.6871 188.042 60.0158C188.137 60.3091 188.294 60.5782 188.504 60.8041C188.722 61.0316 188.987 61.2084 189.28 61.3217C189.631 61.4539 190.003 61.5236 190.378 61.5276V61.3864V61.1982V56.7862V56.6244V56.4626C190.002 56.4646 189.63 56.5354 189.28 56.6714C188.988 56.7818 188.725 56.9572 188.51 57.1845C188.295 57.4118 188.135 57.685 188.042 57.9833C187.934 58.3095 187.879 58.6513 187.88 58.9951L187.889 58.9981ZM190.895 61.5276C191.27 61.5236 191.642 61.4539 191.992 61.3217C192.286 61.2084 192.551 61.0316 192.769 60.8041C192.979 60.5782 193.136 60.3091 193.231 60.0158C193.435 59.3546 193.435 58.6474 193.231 57.9862C193.136 57.6881 192.974 57.4155 192.758 57.1892C192.542 56.9629 192.277 56.7889 191.984 56.6803C191.634 56.5442 191.262 56.4735 190.886 56.4714V56.5244V56.795V61.207V61.4129L190.895 61.5276Z" fill="black"/>
<path d="M197.73 56.0361C198.109 56.0304 198.485 56.1014 198.836 56.2449C199.15 56.3776 199.43 56.5786 199.656 56.8332C199.888 57.1066 200.062 57.4237 200.168 57.7656C200.403 58.5614 200.403 59.4082 200.168 60.204C200.062 60.5452 199.888 60.8614 199.656 61.1335C199.432 61.39 199.151 61.5913 198.836 61.7217C198.125 62.0002 197.335 62.0002 196.624 61.7217C196.308 61.5914 196.026 61.3901 195.8 61.1335C195.567 60.8621 195.392 60.5457 195.286 60.204C195.05 59.4082 195.05 58.5614 195.286 57.7656C195.392 57.4231 195.567 57.1059 195.8 56.8332C196.028 56.5785 196.309 56.3775 196.624 56.2449C196.975 56.1014 197.351 56.0304 197.73 56.0361ZM197.73 61.5129C198.033 61.5178 198.334 61.4576 198.612 61.3364C198.864 61.2228 199.084 61.0491 199.253 60.8305C199.434 60.5947 199.564 60.3244 199.636 60.0363C199.808 59.3539 199.808 58.6392 199.636 57.9568C199.563 57.6674 199.433 57.3954 199.253 57.1567C199.084 56.9373 198.864 56.7626 198.612 56.6479C198.328 56.5294 198.023 56.4685 197.715 56.4685C197.407 56.4685 197.102 56.5294 196.818 56.6479C196.566 56.7626 196.346 56.9373 196.177 57.1567C195.998 57.3959 195.867 57.6676 195.791 57.9568C195.619 58.6392 195.619 59.3539 195.791 60.0363C195.866 60.3241 195.997 60.5942 196.177 60.8305C196.346 61.0491 196.566 61.2228 196.818 61.3364C197.105 61.4615 197.417 61.5218 197.73 61.5129Z" fill="black"/>
<path d="M201.898 63.902V56.128H202.192C202.212 56.1264 202.233 56.1288 202.252 56.1352C202.272 56.1416 202.29 56.1518 202.306 56.1652C202.321 56.1786 202.334 56.1949 202.343 56.2133C202.352 56.2316 202.358 56.2516 202.359 56.2721L202.409 57.1545C202.646 56.8238 202.946 56.5437 203.292 56.3309C203.64 56.1307 204.037 56.029 204.439 56.0368C204.752 56.0212 205.065 56.0793 205.351 56.2065C205.638 56.3337 205.89 56.5265 206.089 56.7692C206.481 57.2574 206.677 57.9898 206.677 58.9664C206.68 59.3645 206.624 59.7608 206.513 60.1429C206.414 60.4863 206.249 60.8071 206.027 61.0871C205.816 61.3537 205.548 61.5698 205.242 61.7195C204.908 61.8801 204.541 61.9597 204.171 61.9518C203.823 61.9609 203.477 61.8873 203.162 61.7371C202.87 61.5891 202.617 61.3733 202.424 61.1077V63.9079L201.898 63.902ZM204.31 56.475C203.943 56.4701 203.583 56.5723 203.274 56.7692C202.949 56.9851 202.669 57.2629 202.451 57.5869V60.6194C202.628 60.9105 202.878 61.1498 203.177 61.3136C203.463 61.4512 203.777 61.5197 204.095 61.5136C204.399 61.5196 204.701 61.4562 204.977 61.3283C205.229 61.208 205.448 61.0284 205.615 60.8047C205.795 60.5634 205.925 60.2897 206.001 59.9988C206.091 59.6603 206.135 59.3109 206.13 58.9605C206.13 58.1075 205.973 57.48 205.66 57.078C205.498 56.8778 205.292 56.7188 205.057 56.6139C204.822 56.5091 204.566 56.4615 204.31 56.475Z" fill="black"/>
<path d="M211.337 60.2782C211.375 60.1774 211.419 60.0791 211.47 59.9841L213.743 56.2397C213.761 56.1941 213.794 56.1565 213.838 56.1338C213.876 56.1184 213.917 56.1104 213.958 56.1103H214.349V61.8812H213.858V57.2427C213.854 57.1722 213.854 57.1015 213.858 57.0309C213.858 56.9574 213.876 56.8868 213.888 56.8221L211.535 60.7841C211.515 60.8148 211.491 60.8425 211.464 60.8665C211.437 60.8901 211.403 60.9027 211.367 60.9018H211.302C211.267 60.9027 211.232 60.8901 211.205 60.8665C211.178 60.8425 211.154 60.8148 211.135 60.7841L208.705 56.8162C208.705 56.8809 208.726 56.9515 208.734 57.028C208.738 57.0995 208.738 57.1712 208.734 57.2427V61.8695H208.249V56.0927H208.655C208.694 56.093 208.732 56.102 208.767 56.1191C208.808 56.143 208.841 56.1789 208.861 56.2221L211.19 59.9723C211.247 60.0705 211.296 60.1727 211.337 60.2782Z" fill="black"/>
<path d="M219.779 61.8678C219.73 61.8729 219.68 61.8591 219.641 61.829C219.602 61.7989 219.575 61.7549 219.567 61.706L219.485 60.9736C219.335 61.1201 219.178 61.2586 219.014 61.3883C218.863 61.5098 218.7 61.6144 218.526 61.7001C218.352 61.7875 218.169 61.8527 217.979 61.8943C217.766 61.9407 217.549 61.9634 217.332 61.9619C217.138 61.9621 216.946 61.9323 216.761 61.8737C216.581 61.8188 216.415 61.7289 216.27 61.6089C216.121 61.4847 216.002 61.3277 215.923 61.1501C215.831 60.9378 215.787 60.7078 215.793 60.4765C215.793 60.2364 215.865 60.0017 215.999 59.803C216.168 59.5695 216.392 59.3823 216.652 59.2588C217.013 59.0844 217.396 58.9607 217.791 58.8911C218.342 58.7902 218.901 58.7361 219.461 58.7294V58.1411C219.49 57.7049 219.368 57.2721 219.117 56.9145C218.993 56.7682 218.836 56.653 218.659 56.5784C218.483 56.5038 218.291 56.4719 218.099 56.4851C217.859 56.479 217.62 56.5179 217.394 56.5998C217.22 56.6661 217.054 56.7509 216.899 56.8528C216.784 56.9313 216.674 57.0168 216.57 57.1087C216.515 57.1712 216.44 57.2119 216.358 57.2234C216.322 57.2253 216.285 57.215 216.255 57.194C216.226 57.1756 216.202 57.1503 216.185 57.1204L216.088 56.9528C216.361 56.6726 216.68 56.4417 217.032 56.2704C217.386 56.1123 217.77 56.034 218.158 56.041C218.435 56.0357 218.71 56.0857 218.967 56.188C219.189 56.2802 219.386 56.4245 219.541 56.6086C219.698 56.8052 219.815 57.0312 219.885 57.2734C219.966 57.5603 220.005 57.8576 220 58.1558V61.8943L219.779 61.8678ZM217.473 61.5737C217.679 61.5755 217.884 61.5518 218.085 61.5031C218.266 61.4572 218.441 61.3891 218.605 61.3001C218.765 61.2189 218.915 61.1202 219.052 61.006C219.191 60.8883 219.326 60.7589 219.461 60.6206V59.1264C218.988 59.1346 218.517 59.1759 218.049 59.25C217.713 59.3003 217.384 59.3922 217.07 59.5235C216.85 59.6117 216.656 59.7533 216.505 59.9353C216.385 60.0921 216.321 60.2848 216.323 60.4824C216.319 60.6529 216.351 60.8222 216.417 60.9795C216.476 61.1125 216.563 61.2309 216.673 61.3266C216.78 61.4174 216.904 61.4855 217.038 61.5266C217.18 61.5592 217.327 61.571 217.473 61.5619V61.5737Z" fill="black"/>
<path d="M0 61.9751V47.6537C-6.98554e-08 43.2989 1.72973 39.1224 4.80874 36.0429C7.88775 32.9633 12.0639 31.2328 16.4187 31.2321V45.5476C16.4198 47.7045 15.996 49.8405 15.1714 51.8335C14.3468 53.8265 13.1376 55.6376 11.6129 57.1631C10.0881 58.6886 8.27777 59.8988 6.28519 60.7245C4.29261 61.5502 2.15687 61.9751 0 61.9751Z" fill="#296CDB"/>
<path d="M20.423 61.9743V32.2843C20.423 27.9298 22.1529 23.7536 25.232 20.6745C28.311 17.5954 32.4872 15.8656 36.8417 15.8656V45.5469C36.8429 47.7037 36.419 49.8397 35.5944 51.8327C34.7698 53.8257 33.5606 55.6368 32.0359 57.1623C30.5112 58.6879 28.7008 59.898 26.7082 60.7237C24.7156 61.5494 22.5799 61.9744 20.423 61.9743Z" fill="#296CDB"/>
<path d="M40.8514 61.9744V16.9187C40.8514 12.5642 42.5813 8.38801 45.6604 5.30892C48.7394 2.22982 52.9156 0.5 57.2701 0.5V0.5V45.5469C57.2713 47.7038 56.8474 49.8398 56.0228 51.8328C55.1982 53.8258 53.989 55.6368 52.4643 57.1624C50.9396 58.6879 49.1292 59.8981 47.1366 60.7238C45.144 61.5494 43.0083 61.9744 40.8514 61.9744Z" fill="#296CDB"/>
</svg>
