<svg width="80" height="81" viewBox="0 0 80 81" fill="none" xmlns="http://www.w3.org/2000/svg">
<path d="M77.3325 54.85L72.0025 49.52C73.9062 46.105 75 42.18 75 38C75 24.9037 64.3462 14.25 51.25 14.25C45.7775 14.25 40.7463 16.1287 36.7262 19.25H22.8425C24.9263 17.4163 26.25 14.7375 26.25 11.75C26.25 6.23625 21.7638 1.75 16.25 1.75C10.7362 1.75 6.25 6.23625 6.25 11.75C6.25 14.8975 7.715 17.7062 9.99625 19.5413C4.99625 20.6838 1.25 25.1588 1.25 30.5V38C1.25 41.955 3.89 45.3025 7.5 46.3813V74.25C7.5 77.0075 9.7425 79.25 12.5 79.25C14 79.25 15.3325 78.5725 16.25 77.5225C17.1675 78.5725 18.5 79.25 20 79.25C22.7575 79.25 25 77.0075 25 74.25V72.2675L35.5175 61.75L34.2675 60.5L37.465 57.3025C40.0575 59.16 43.0288 60.5163 46.25 61.21V67.7262L49.27 68.48L47.6687 71.15L54.3525 77.8337L57.02 76.2312L57.7738 79.25H67.2262L67.98 76.23L70.6475 77.8325L77.3313 71.1488L75.73 68.4788L78.75 67.7262V58.2738L75.73 57.52L77.3325 54.85ZM72.5 38C72.5 49.7175 62.9675 59.25 51.25 59.25C39.5325 59.25 30 49.7175 30 38C30 26.2825 39.5325 16.75 51.25 16.75C62.9675 16.75 72.5 26.2825 72.5 38ZM68.75 63C68.75 66.4463 65.9463 69.25 62.5 69.25C59.0537 69.25 56.25 66.4463 56.25 63C56.25 62.355 56.3775 61.7337 56.5675 61.1275C59.6625 60.4162 62.5225 59.1 65.0275 57.3075C67.2712 58.3025 68.75 60.51 68.75 63ZM27.5 53.7325L25 56.2325V46.75H25.625C26.8325 46.75 27.9275 46.2575 28.72 45.4638C29.4775 47.745 30.575 49.8675 31.9475 51.785L28.75 54.9825L27.5 53.7325ZM27.5 38C27.5 38.1525 27.52 38.3 27.5225 38.4512C26.9462 38.1712 26.3075 38 25.625 38H25V29.875C25 28.8412 25.8412 28 26.875 28H29.7375C28.3175 31.0438 27.5 34.425 27.5 38ZM17.4487 31.2838L16.25 32.4825L15.0513 31.2838L15.9775 21.75H16.5212L17.4487 31.2838ZM8.75 11.75C8.75 7.61375 12.1138 4.25 16.25 4.25C20.3862 4.25 23.75 7.61375 23.75 11.75C23.75 15.8862 20.3862 19.25 16.25 19.25C12.1138 19.25 8.75 15.8862 8.75 11.75ZM12.5 21.75H13.4662L12.4487 32.2162L16.25 36.0175L20.0513 32.2162L19.0338 21.75H33.9775C32.8962 22.8988 31.9325 24.1537 31.0938 25.5H26.875C24.4625 25.5 22.5 27.4625 22.5 29.875V38H11.25C10.5612 38 10 37.44 10 36.75V28H7.5V35.5H3.75V30.5C3.75 25.6763 7.675 21.75 12.5 21.75ZM3.75 38H7.73C8.2475 39.4512 9.6225 40.5 11.25 40.5H25.625C26.6588 40.5 27.5 41.3413 27.5 42.375C27.5 43.4087 26.6588 44.25 25.625 44.25H10C6.55375 44.25 3.75 41.4463 3.75 38ZM20 76.75C18.6213 76.75 17.5 75.6288 17.5 74.25V51.75H15V74.25C15 75.6288 13.8787 76.75 12.5 76.75C11.1213 76.75 10 75.6288 10 74.25V46.75H22.5V74.25C22.5 75.6288 21.3787 76.75 20 76.75ZM25 68.7325V59.7675L27.5 57.2675L31.9825 61.75L25 68.7325ZM32.5 58.7325L30.5175 56.75L33.52 53.7475C34.1413 54.4475 34.8025 55.1075 35.5025 55.73L32.5 58.7325ZM76.25 60.2262V65.7738L73.8138 66.3813L73.1462 66.6387L72.5638 68.0625L74.1837 70.7612L70.2612 74.6837L67.5638 73.065L66.0387 73.685L65.2738 76.75H59.7262L59.1175 74.3138L58.8638 73.645L57.4363 73.065L54.7388 74.6837L50.8162 70.7612L52.4363 68.0625L51.8113 66.5375L48.75 65.7738V61.6163C49.5725 61.7025 50.405 61.75 51.25 61.75C52.1375 61.75 53.01 61.6925 53.8725 61.5975C53.7975 62.0587 53.75 62.525 53.75 63C53.75 67.8238 57.675 71.75 62.5 71.75C67.325 71.75 71.25 67.8238 71.25 63C71.25 59.935 69.6462 57.1813 67.13 55.6088C68.4337 54.4313 69.61 53.12 70.6287 51.6825L74.1837 55.2375L72.5638 57.9363L73.1925 59.4613L76.25 60.2262Z" fill="#F03A31"/>
<path d="M78.75 8C78.75 4.55375 75.9462 1.75 72.5 1.75H67.5C64.0538 1.75 61.25 4.55375 61.25 8V14.25H72.5C75.9462 14.25 78.75 11.4462 78.75 8ZM63.75 8C63.75 5.9325 65.4325 4.25 67.5 4.25H72.5C74.5675 4.25 76.25 5.9325 76.25 8C76.25 10.0675 74.5675 11.75 72.5 11.75H63.75V8Z" fill="#F03A31"/>
<path d="M66.25 6.75H68.75V9.25H66.25V6.75Z" fill="#F03A31"/>
<path d="M71.25 6.75H73.75V9.25H71.25V6.75Z" fill="#F03A31"/>
<path d="M51.25 56.75C61.5887 56.75 70 48.3387 70 38C70 27.6613 61.5887 19.25 51.25 19.25C40.9113 19.25 32.5 27.6613 32.5 38C32.5 48.3387 40.9113 56.75 51.25 56.75ZM45 44.25H47.5V53.7962C46.64 53.5925 45.8012 53.3325 45 52.9963V44.25ZM42.5 51.6712C41.6025 51.095 40.765 50.435 40 49.6988V36.75H42.5V51.6712ZM50 54.1863V26.75H52.5V54.1863C52.0863 54.2188 51.6725 54.25 51.25 54.25C50.8275 54.25 50.4137 54.2188 50 54.1863ZM55 39.25H57.5V52.9963C56.6987 53.3313 55.86 53.5913 55 53.7962V39.25ZM62.5 49.6988C61.735 50.435 60.8975 51.095 60 51.6712V34.25H62.5V49.6988ZM51.25 21.75C60.21 21.75 67.5 29.04 67.5 38C67.5 41.1688 66.575 44.1187 65 46.62V31.75H57.5V36.75H55V24.25H47.5V41.75H45V34.25H37.5V46.62C35.925 44.1175 35 41.1675 35 38C35 29.04 42.29 21.75 51.25 21.75Z" fill="#F03A31"/>
</svg>
