<svg width="80" height="81" viewBox="0 0 80 81" fill="none" xmlns="http://www.w3.org/2000/svg">
<g clip-path="url(#clip0)">
<path d="M74.1388 61.4832H72.0377V53.5891C72.0377 52.5123 71.1616 51.6362 70.0848 51.6362H63.2101C62.1332 51.6362 61.2571 52.5123 61.2571 53.5891V61.4916C61.2126 61.4865 61.1676 61.4832 61.1216 61.4832H54.4927V53.5891C54.4927 52.5123 53.6166 51.6362 52.5398 51.6362H45.6651C44.5882 51.6362 43.7121 52.5123 43.7121 53.5891V61.4832H39.8266C39.0251 60.5887 38.0173 59.8835 36.879 59.4406L36.6671 54.2077C38.3807 53.6604 39.6254 52.0534 39.6254 50.1606V41.3712C39.6254 39.232 38.0357 37.4579 35.9757 37.1662L35.7763 32.2538L42.9551 24.3949L48.9607 32.4037C49.7163 33.4107 50.8021 34.0207 51.9548 34.1938C52.4101 37.052 54.8915 39.2437 57.8759 39.2437C59.6126 39.2437 61.2598 38.4762 62.3873 37.191L64.8082 38.3841C64.4771 39.567 64.4857 40.8576 64.9096 42.106C65.4518 43.7027 66.5832 44.9927 68.0957 45.7384C68.9774 46.1731 69.9266 46.3923 70.8816 46.3923C71.5649 46.3923 72.2512 46.2799 72.9171 46.0538C73.5301 45.8459 73.858 45.1802 73.6499 44.5674C73.4418 43.9545 72.776 43.6265 72.1637 43.8346C71.1596 44.1756 70.083 44.1049 69.1321 43.6362C68.1812 43.1674 67.4698 42.3563 67.1288 41.3524C66.4251 39.2801 67.5387 37.0215 69.611 36.3177C70.6149 35.9768 71.6916 36.0474 72.6426 36.5162C73.5935 36.9849 74.3049 37.796 74.6459 38.7999C74.854 39.4127 75.5196 39.7407 76.1321 39.5327C76.7451 39.3248 77.073 38.6591 76.8649 38.0463C76.3227 36.4496 75.1913 35.1596 73.679 34.414C72.1663 33.6684 70.4541 33.5563 68.8576 34.0985C67.6101 34.5221 66.5816 35.3002 65.8452 36.2823L63.5582 35.1551C63.7634 34.5434 63.871 33.8993 63.871 33.2471C63.871 31.0034 62.6498 29.0065 60.738 27.9756C60.9249 26.894 60.7254 25.7429 60.0924 24.7401L52.8274 13.2109C53.8991 10.9731 53.4568 8.23634 51.6537 6.44899L47.3855 2.22149C45.1216 -0.0230396 41.5188 -0.0797583 39.1844 2.09274L22.0168 18.0699H16.4655C10.9294 18.0699 6.41679 22.4029 6.1921 27.9343L5.81554 37.2087C3.87882 37.6032 2.41695 39.3196 2.41695 41.3712V50.1606C2.41695 51.9618 3.54445 53.5037 5.13023 54.1204L4.91413 59.4406C2.04335 60.5576 0.0022583 63.3493 0.0022583 66.6102V78.5468C0.0022583 79.6237 0.878352 80.4998 1.95523 80.4998H39.8377C40.9146 80.4998 41.7907 79.6237 41.7907 78.5468V77.5541H68.7423C69.3895 77.5541 69.9141 77.0295 69.9141 76.3823C69.9141 75.7351 69.3896 75.2104 68.7423 75.2104H41.7907V66.6101C41.7907 65.6285 41.604 64.6904 41.2673 63.8266H74.1388C76.0773 63.8266 77.6543 65.4037 77.6543 67.3421V71.6951C77.6543 73.6335 76.0773 75.2106 74.1388 75.2106H73.4294C72.7823 75.2106 72.2576 75.7352 72.2576 76.3824C72.2576 77.0296 72.7821 77.5543 73.4294 77.5543H74.1388C77.3696 77.5543 79.9979 74.926 79.9979 71.6952V67.3423C79.9979 64.1115 77.3696 61.4832 74.1388 61.4832ZM59.7552 30.1132C60.8409 30.7602 61.5271 31.9343 61.5271 33.2473C61.5271 33.9041 61.3512 34.5476 61.0176 35.1087C60.3521 36.2304 59.1776 36.9002 57.8757 36.9002C56.0974 36.9002 54.6127 35.6227 54.289 33.9374C54.6187 33.8096 54.939 33.6423 55.2432 33.4331L58.8121 30.977C59.1741 30.7274 59.4887 30.4356 59.7552 30.1132ZM58.1096 25.9902C58.5368 26.667 58.5602 27.4802 58.2418 28.1535C58.2369 28.164 58.2316 28.1741 58.2271 28.1849C58.0623 28.5199 57.8132 28.8191 57.4834 29.0463L53.9148 31.5023C53.6035 31.7165 53.2577 31.8423 52.9071 31.8846C52.9049 31.8849 52.9027 31.8851 52.9005 31.8854C52.1288 31.9763 51.3349 31.6634 50.8354 30.9976L44.5637 22.6341L51.3285 15.2284L58.1096 25.9902ZM8.53366 28.0295C8.70726 23.7588 12.1913 20.4135 16.4655 20.4135H25.3276C26.619 20.4135 27.8508 20.7138 28.9887 21.3063C29.5627 21.6051 30.2702 21.3821 30.5691 20.8082C30.868 20.2341 30.6449 19.5265 30.071 19.2276C28.6538 18.4896 27.0604 18.0918 25.4549 18.0718L40.7813 3.80821C42.1919 2.49587 44.3685 2.52977 45.7362 3.88602L50.0043 8.11368C51.3501 9.44774 51.4319 11.6362 50.1284 13.0673L42.1707 21.779C42.1685 21.7815 42.1663 21.7838 42.1641 21.7862L35.6415 28.9268L35.6012 27.9341C35.526 26.0824 34.9532 24.2863 33.9449 22.7404C33.5913 22.1982 32.8652 22.0456 32.3234 22.3991C31.7813 22.7527 31.6284 23.4787 31.9821 24.0207C32.7598 25.2132 33.2016 26.5993 33.2598 28.0293L33.629 37.1232H8.16445L8.53366 28.0295ZM4.76038 50.1606V41.3712C4.76038 40.3212 5.6146 39.4668 6.66476 39.4668H35.3773C36.4273 39.4668 37.2816 40.321 37.2816 41.3712V50.1606C37.2816 51.2106 36.4274 52.0648 35.3773 52.0648H6.66476C5.61476 52.0649 4.76038 51.2107 4.76038 50.1606ZM39.4471 78.1563H2.34585V66.6104C2.34585 63.6615 4.74507 61.2623 7.69398 61.2623H11.021C11.6682 61.2623 12.1929 60.7376 12.1929 60.0904C12.1929 59.4432 11.6682 58.9185 11.021 58.9185C7.37491 58.9185 7.57304 58.9143 7.28023 58.9299L7.46382 54.4085H34.3298L34.5127 58.9299C34.1973 58.9132 35.5294 58.9185 15.7082 58.9185C15.061 58.9185 14.5363 59.4432 14.5363 60.0904C14.5363 60.7376 15.061 61.2623 15.7082 61.2623H34.0988C37.0477 61.2623 39.4469 63.6615 39.4469 66.6104C39.4471 68.0635 39.4471 76.6979 39.4471 78.1563ZM52.1491 61.4827H46.0557V53.9798H52.1491V61.4827ZM69.6941 61.4827H63.6007V53.9798H69.6941V61.4827Z" fill="#F03A31"/>
<path d="M48.3126 69.7273C48.3126 71.7895 49.9904 73.4671 52.0524 73.4671C54.1146 73.4671 55.7922 71.7895 55.7922 69.7273C55.7922 67.6651 54.1144 65.9874 52.0524 65.9874C49.9904 65.9873 48.3126 67.6651 48.3126 69.7273ZM53.4487 69.7273C53.4487 70.4971 52.8222 71.1235 52.0524 71.1235C51.2826 71.1235 50.6562 70.4971 50.6562 69.7273C50.6562 68.9574 51.2826 68.331 52.0524 68.331C52.8222 68.331 53.4487 68.9573 53.4487 69.7273Z" fill="#F03A31"/>
<path d="M64.7337 69.7273C64.7337 71.7894 66.4115 73.4671 68.4737 73.4671C70.5359 73.4671 72.2135 71.7894 72.2135 69.7273C72.2135 64.7848 64.7337 64.7848 64.7337 69.7273ZM68.4737 71.1235C67.7038 71.1235 67.0773 70.4971 67.0773 69.7273C67.0773 68.9574 67.7038 68.331 68.4737 68.331C69.2435 68.331 69.8699 68.9574 69.8699 69.7273C69.8699 70.4971 69.2437 71.1235 68.4737 71.1235Z" fill="#F03A31"/>
<path d="M20.8965 23.5759C18.3062 23.5759 16.1987 25.6834 16.1987 28.2737C16.1987 30.8642 18.3062 32.9716 20.8965 32.9716C23.4868 32.9716 25.5943 30.8641 25.5943 28.2737C25.5943 25.6834 23.4868 23.5759 20.8965 23.5759ZM20.8965 30.628C19.5984 30.628 18.5423 29.5719 18.5423 28.2737C18.5423 26.9756 19.5984 25.9195 20.8965 25.9195C22.1946 25.9195 23.2507 26.9756 23.2507 28.2737C23.2507 29.5719 22.1946 30.628 20.8965 30.628Z" fill="#F03A31"/>
<path d="M44.4163 14.1123C47.2822 12.7596 47.0627 8.60806 44.0991 7.54493C41.1049 6.47087 38.3384 9.57212 39.6795 12.4132C40.5153 14.184 42.6295 14.9556 44.4163 14.1123ZM41.7541 10.4841C42.1206 9.46243 43.5367 9.40274 43.9961 10.3759C44.2819 10.9817 44.0217 11.7071 43.4159 11.9931C42.447 12.4501 41.387 11.5073 41.7541 10.4841Z" fill="#F03A31"/>
<path d="M8.42401 50.1942H17.3706C18.0178 50.1942 18.5424 49.6695 18.5424 49.0224V42.8448C18.5424 42.1977 18.0178 41.673 17.3706 41.673H8.42401C7.77682 41.673 7.25214 42.1977 7.25214 42.8448V49.0224C7.25214 49.6697 7.77682 50.1942 8.42401 50.1942ZM9.59573 44.0167H16.1987V47.8506H9.59573V44.0167Z" fill="#F03A31"/>
<path d="M22.8775 44.6741H23.3558C24.003 44.6741 24.5277 44.1494 24.5277 43.5022C24.5277 42.855 24.003 42.3303 23.3558 42.3303H22.8775C22.2303 42.3303 21.7056 42.855 21.7056 43.5022C21.7056 44.1494 22.2303 44.6741 22.8775 44.6741Z" fill="#F03A31"/>
<path d="M27.6946 44.6741H28.1729C28.8201 44.6741 29.3448 44.1494 29.3448 43.5022C29.3448 42.855 28.8201 42.3303 28.1729 42.3303H27.6946C27.0475 42.3303 26.5228 42.855 26.5228 43.5022C26.5228 44.1494 27.0475 44.6741 27.6946 44.6741Z" fill="#F03A31"/>
<path d="M32.5117 44.6741H32.99C33.6372 44.6741 34.1619 44.1494 34.1619 43.5022C34.1619 42.855 33.6372 42.3303 32.99 42.3303H32.5117C31.8645 42.3303 31.3398 42.855 31.3398 43.5022C31.3398 44.1494 31.8645 44.6741 32.5117 44.6741Z" fill="#F03A31"/>
<path d="M22.8775 49.2014H23.3558C24.003 49.2014 24.5277 48.6767 24.5277 48.0295C24.5277 47.3824 24.003 46.8577 23.3558 46.8577H22.8775C22.2303 46.8577 21.7056 47.3824 21.7056 48.0295C21.7056 48.6767 22.2303 49.2014 22.8775 49.2014Z" fill="#F03A31"/>
<path d="M27.6946 49.2014H28.1729C28.8201 49.2014 29.3448 48.6767 29.3448 48.0295C29.3448 47.3824 28.8201 46.8577 28.1729 46.8577H27.6946C27.0475 46.8577 26.5228 47.3824 26.5228 48.0295C26.5228 48.6767 27.0475 49.2014 27.6946 49.2014Z" fill="#F03A31"/>
<path d="M32.5117 49.2014H32.99C33.6372 49.2014 34.1619 48.6767 34.1619 48.0295C34.1619 47.3824 33.6372 46.8577 32.99 46.8577H32.5117C31.8645 46.8577 31.3398 47.3824 31.3398 48.0295C31.3398 48.6767 31.8645 49.2014 32.5117 49.2014Z" fill="#F03A31"/>
<path d="M9.6305 67.2854C7.56831 67.2854 5.8905 68.9631 5.8905 71.0252C5.8905 73.0874 7.56831 74.7652 9.6305 74.7652C11.6927 74.7652 13.3703 73.0874 13.3703 71.0252C13.3703 68.9632 11.6927 67.2854 9.6305 67.2854ZM9.6305 72.4217C8.86066 72.4217 8.2341 71.7952 8.2341 71.0252C8.2341 70.2554 8.8605 69.629 9.6305 69.629C10.4005 69.629 11.0268 70.2554 11.0268 71.0252C11.0268 71.7952 10.4003 72.4217 9.6305 72.4217Z" fill="#F03A31"/>
<path d="M33.3244 65.9912H33.0415V65.6011C33.0415 64.9539 32.5169 64.4292 31.8697 64.4292C31.2225 64.4292 30.6978 64.9539 30.6978 65.6011V65.9912H30.415C29.7678 65.9912 29.2431 66.5159 29.2431 67.1631C29.2431 67.8103 29.7678 68.335 30.415 68.335H30.6978V73.8178C30.6978 74.465 31.2225 74.9897 31.8697 74.9897C32.5169 74.9897 33.0415 74.465 33.0415 73.8178V68.335H33.3244C33.9715 68.335 34.4962 67.8103 34.4962 67.1631C34.4962 66.5158 33.9715 65.9912 33.3244 65.9912Z" fill="#F03A31"/>
<path d="M27.0051 70.231H26.7223V65.6008C26.7223 64.9536 26.1976 64.429 25.5504 64.429C24.9032 64.429 24.3785 64.9536 24.3785 65.6008V70.231H24.0957C23.4485 70.231 22.9238 70.7557 22.9238 71.4029C22.9238 72.05 23.4485 72.5747 24.0957 72.5747H24.3785V73.8175C24.3785 74.4647 24.9032 74.9894 25.5504 74.9894C26.1976 74.9894 26.7223 74.4647 26.7223 73.8175V72.5747H27.0051C27.6523 72.5747 28.177 72.05 28.177 71.4029C28.1768 70.7557 27.6523 70.231 27.0051 70.231Z" fill="#F03A31"/>
<path d="M20.6856 67.2854H20.4028V65.6008C20.4028 64.9536 19.8781 64.429 19.2309 64.429C18.5837 64.429 18.0591 64.9536 18.0591 65.6008V67.2854H17.7762C17.1291 67.2854 16.6044 67.81 16.6044 68.4572C16.6044 69.1044 17.1291 69.6291 17.7762 69.6291H18.0591V73.8175C18.0591 74.4647 18.5837 74.9894 19.2309 74.9894C19.8781 74.9894 20.4028 74.4647 20.4028 73.8175V69.6291H20.6856C21.3328 69.6291 21.8575 69.1044 21.8575 68.4572C21.8575 67.81 21.3328 67.2854 20.6856 67.2854Z" fill="#F03A31"/>
</g>
<defs>
<clipPath id="clip0">
<rect y="0.5" width="80" height="80" fill="white"/>
</clipPath>
</defs>
</svg>
