<svg width="80" height="81" viewBox="0 0 80 81" fill="none" xmlns="http://www.w3.org/2000/svg">
<path d="M67.9689 35.2172C67.4105 33.6503 65.9258 32.6052 64.2623 32.6082C62.6005 32.6133 61.1217 33.6636 60.5695 35.2311H52.459V29.9852H57.7049C58.429 29.9854 59.0162 29.3985 59.0164 28.6744C59.0164 28.6742 59.0164 28.6739 59.0164 28.6738V23.1862C61.0651 22.4619 62.1389 20.2141 61.4146 18.1652C60.6903 16.1165 58.4425 15.0428 56.3936 15.767C54.3448 16.4913 53.2712 18.7392 53.9954 20.788C54.3915 21.9085 55.273 22.79 56.3935 23.1862V27.3624H52.459V24.7395C52.4592 24.0154 51.8723 23.4282 51.1482 23.428C51.148 23.428 51.1477 23.428 51.1476 23.428H48.5246V16.6287C50.5733 15.9044 51.6471 13.6565 50.9228 11.6077C50.1985 9.559 47.9507 8.48523 45.9018 9.20949C43.8531 9.93375 42.7794 12.1816 43.5036 14.2305C43.8997 15.351 44.7812 16.2324 45.9017 16.6287V23.4279H40.6558V2.49031C40.6559 1.76621 40.069 1.179 39.3449 1.17883C39.3448 1.17883 39.3444 1.17883 39.3443 1.17883C23.1654 1.17883 10.4918 12.8924 10.4918 27.8451C10.4918 34.948 13.3113 44.3524 17.851 52.3865C18.6662 53.8287 19.7299 55.3451 20.8556 56.9511C23.2361 60.3444 25.8853 64.1603 26.1733 67.482C25.1651 68.1946 24.5751 69.3603 24.5979 70.5947C24.6017 71.4815 24.9079 72.3405 25.4659 73.0297C24.6897 73.7956 24.2556 74.8424 24.2623 75.9329C24.2646 78.1049 26.0248 79.8651 28.1967 79.8674H50.4918C52.6785 79.8538 54.4403 78.0702 54.4267 75.8834C54.4266 75.8692 54.4264 75.8549 54.4262 75.8406C54.4254 74.7739 53.9895 73.7538 53.2192 73.0157C53.7844 72.3 54.0915 71.4144 54.0907 70.5024C54.0867 68.4252 52.3997 66.7446 50.3225 66.7485C50.2671 66.7487 50.2117 66.75 50.1562 66.7524H40.6558V41.7883H43.2787V45.7228C43.2785 46.4469 43.8654 47.0341 44.5895 47.0342C44.5897 47.0342 44.59 47.0342 44.5902 47.0342H48.5246V48.5874C46.4759 49.3116 45.4023 51.5597 46.1267 53.6082C46.8512 55.6567 49.099 56.7305 51.1476 56.0061C53.1962 55.2818 54.2699 53.0338 53.5454 50.9852C53.1494 49.8647 52.2679 48.9834 51.1476 48.5874V45.7228C51.1477 44.9987 50.5608 44.4115 49.8367 44.4113C49.8366 44.4113 49.8362 44.4113 49.8361 44.4113H45.9017V41.7883H51.1476C51.8717 41.7885 52.4589 41.2016 52.459 40.4775C52.459 40.4774 52.459 40.477 52.459 40.4769V37.8539H60.5697C61.2979 39.8972 63.5444 40.9633 65.5877 40.2351C67.6308 39.507 68.6969 37.2605 67.9689 35.2172ZM57.7049 18.1818C58.4292 18.1818 59.0164 18.769 59.0164 19.4933C59.0164 20.2175 58.4292 20.8047 57.7049 20.8047C56.9807 20.8047 56.3935 20.2175 56.3935 19.4933C56.3941 18.7693 56.981 18.1826 57.7049 18.1818ZM23.0033 55.4449C21.9146 53.8926 20.8869 52.4275 20.1344 51.0956C15.8703 43.5482 13.1148 34.4216 13.1148 27.8451C13.1148 14.7662 23.9569 4.43572 38.0328 3.82998V12.9919C37.6846 13.018 37.3294 13.0497 36.9494 13.0962C36.3926 13.1639 35.9407 13.5783 35.8249 14.1272L35.4253 16.0279C35.0961 16.106 34.7679 16.1944 34.4403 16.2929L33.1333 14.8354C32.7589 14.4165 32.1592 14.2831 31.6425 14.5038C30.1746 15.1367 28.7892 15.9457 27.5166 16.9128C27.0685 17.2505 26.8851 17.8359 27.06 18.369L27.662 20.2031C27.4141 20.4362 27.1728 20.6782 26.939 20.9254L25.1069 20.3234C24.5739 20.1508 23.99 20.3336 23.6507 20.7793C22.6823 22.0523 21.8726 23.4383 21.2397 24.9072C21.0194 25.4239 21.1528 26.0234 21.5713 26.398L23.0295 27.7044C22.9315 28.0285 22.8438 28.3533 22.7664 28.679L20.7269 29.0862C20.1138 29.2085 19.6723 29.7469 19.6723 30.3721V34.8442C19.6723 35.4695 20.1138 36.0079 20.7271 36.1301L22.7666 36.5374C22.8441 36.8626 22.9318 37.1875 23.0297 37.5119L21.571 38.8183C21.153 39.1933 21.0197 39.7924 21.2394 40.3092C21.8725 41.7779 22.682 43.1641 23.6503 44.437C23.9894 44.8833 24.5736 45.0661 25.1066 44.8929L26.9387 44.291C27.1731 44.5382 27.4138 44.7802 27.6617 45.0133L27.0597 46.8447C26.8849 47.3777 27.068 47.9628 27.5156 48.301C28.7882 49.2695 30.1743 50.0793 31.6428 50.7126C32.1595 50.932 32.7585 50.7987 33.1336 50.381L34.4407 48.9234C34.7679 49.0221 35.0962 49.1105 35.4256 49.1885L35.8246 51.0879C35.9399 51.6372 36.392 52.0523 36.949 52.1201C37.3295 52.1667 37.6849 52.1983 38.0331 52.2244V66.7526H28.7397C28.2035 62.8875 25.4658 58.9559 23.0033 55.4449ZM27.541 32.608C27.5494 38.6152 32.0635 43.6603 38.0328 44.3339V48.8439L37.8158 47.8116C37.7062 47.2888 37.2907 46.8846 36.7649 46.7897C35.9876 46.6482 35.2233 46.4421 34.4802 46.1736C34.3377 46.1229 34.1876 46.097 34.0364 46.0967C33.6636 46.0967 33.3084 46.2556 33.0599 46.5334L31.8266 47.909C31.1431 47.5675 30.4836 47.1801 29.8523 46.75L30.4217 45.0172C30.5884 44.5093 30.4305 43.9513 30.0226 43.6059C29.4179 43.0939 28.8564 42.5328 28.3443 41.9282C27.9979 41.5231 27.4417 41.3664 26.9348 41.5311L25.2026 42.1011C24.7721 41.4697 24.3848 40.8098 24.043 40.1262L25.4197 38.8929C25.8167 38.5364 25.9587 37.9751 25.7789 37.4726C25.5107 36.7293 25.3046 35.9651 25.1628 35.1879C25.0671 34.6578 24.6569 34.2403 24.1285 34.1351L22.2951 33.7685V31.4479L24.1285 31.0816C24.6567 30.9765 25.0671 30.5588 25.1628 30.0288C25.3046 29.2511 25.5107 28.4864 25.7787 27.7426C25.9589 27.24 25.8166 26.6785 25.4189 26.3223L24.0433 25.0901C24.3854 24.4069 24.7726 23.747 25.2023 23.1152L26.9351 23.6852C27.442 23.8498 27.998 23.6933 28.3446 23.2882C28.858 22.6831 29.4199 22.1208 30.0243 21.6065C30.4305 21.2618 30.5876 20.7052 30.4213 20.199L29.8526 18.4662C30.4839 18.0362 31.1433 17.649 31.8262 17.3072L33.0595 18.6828C33.4162 19.0795 33.9772 19.2216 34.4799 19.0426C35.223 18.7739 35.9872 18.5679 36.7646 18.4265C37.2902 18.3321 37.7058 17.9283 37.8154 17.4057L38.0328 16.3734V20.8821C32.0635 21.5559 27.5494 26.6008 27.541 32.608ZM38.0328 23.5324V41.6836C33.0205 40.966 29.5389 36.321 30.2564 31.3087C30.8336 27.2772 34.0012 24.1097 38.0328 23.5324ZM51.8033 75.9329C51.8026 76.6569 51.2158 77.2438 50.4918 77.2444H28.1967C27.4592 77.232 26.8713 76.6239 26.8838 75.8864C26.8841 75.8711 26.8846 75.8559 26.8853 75.8406C26.8859 75.1167 27.4728 74.5298 28.1967 74.5292H50.4918C51.2294 74.5416 51.8172 75.1497 51.8048 75.8872C51.8046 75.9025 51.8041 75.9177 51.8033 75.9329ZM50.1562 69.3756C50.8169 69.3146 51.402 69.801 51.4628 70.4616C51.4669 70.5059 51.4685 70.5503 51.4677 70.5947C51.4671 71.3187 50.8802 71.9056 50.1562 71.9062H28.5323C27.7948 71.8938 27.2069 71.2859 27.2194 70.5482C27.2197 70.5329 27.2202 70.5177 27.2208 70.5024C27.2489 69.8487 27.8017 69.3415 28.4554 69.3697C28.4812 69.3708 28.5067 69.3728 28.5323 69.3754H50.1562V69.3756ZM49.8361 50.9687C50.5603 50.9687 51.1476 51.5559 51.1476 52.2802C51.1476 53.0044 50.5603 53.5916 49.8361 53.5916C49.1118 53.5916 48.5246 53.0044 48.5246 52.2802C48.5253 51.5562 49.1121 50.9695 49.8361 50.9687ZM47.2131 11.6244C47.9374 11.6244 48.5246 12.2116 48.5246 12.9359C48.5246 13.6601 47.9374 14.2474 47.2131 14.2474C46.4889 14.2474 45.9017 13.6601 45.9017 12.9359C45.9023 12.2119 46.4892 11.6252 47.2131 11.6244ZM49.8361 39.1654H40.6558V26.0506H49.8361V39.1654ZM64.2623 37.8539C63.538 37.8539 62.9508 37.2667 62.9508 36.5424C62.9508 35.8182 63.538 35.231 64.2623 35.231C64.9866 35.231 65.5738 35.8182 65.5738 36.5424C65.5731 37.2665 64.9862 37.8533 64.2623 37.8539Z" fill="#F03A31"/>
<path d="M51.9922 61.1276C51.5297 61.9544 51.1206 62.81 50.7673 63.689L53.2058 64.6548C53.5183 63.8794 53.8799 63.1248 54.2886 62.3956L51.9922 61.1276Z" fill="#F03A31"/>
<path d="M54.9424 56.5079C54.427 57.2483 53.9127 58.0012 53.4209 58.762L55.6225 60.1863C56.0989 59.4512 56.5965 58.7237 57.0953 58.0065L54.9424 56.5079Z" fill="#F03A31"/>
<path d="M57.9259 52.1444C57.4835 52.8462 56.9904 53.5724 56.4736 54.3179L58.6279 55.8138C59.169 55.0351 59.6838 54.2756 60.1456 53.5405L57.9259 52.1444Z" fill="#F03A31"/>
<path d="M60.3867 47.5735C60.0108 48.3599 59.6179 49.1373 59.2079 49.9058L61.5208 51.143C61.9499 50.34 62.3608 49.5268 62.7536 48.7032L60.3867 47.5735Z" fill="#F03A31"/>
<path d="M62.4353 42.7605C62.1306 43.5712 61.8058 44.3831 61.4625 45.1887L63.8768 46.2159C64.2342 45.3744 64.572 44.53 64.8906 43.6826L62.4353 42.7605Z" fill="#F03A31"/>
<path d="M68.1955 27.5839L65.5725 27.6044L65.5738 27.8452C65.5738 28.5765 65.5399 29.3539 65.472 30.153L68.086 30.3734C68.1596 29.5012 68.1968 28.6507 68.1968 27.8452L68.1955 27.5839Z" fill="#F03A31"/>
<path d="M67.5275 22.001L64.9737 22.5979C65.1653 23.4177 65.3111 24.2477 65.4104 25.0838L68.0155 24.7738C67.9042 23.8413 67.7412 22.9156 67.5275 22.001Z" fill="#F03A31"/>
<path d="M65.6424 16.7013L63.2845 17.8488C63.6532 18.6064 63.9799 19.3838 64.263 20.1772L66.7335 19.2987C66.4184 18.4133 66.0542 17.546 65.6424 16.7013Z" fill="#F03A31"/>
<path d="M62.6422 11.9523L60.5879 13.5839C61.1128 14.2449 61.6023 14.9331 62.0543 15.6459L64.2712 14.2447C63.7692 13.4523 63.2254 12.687 62.6422 11.9523Z" fill="#F03A31"/>
<path d="M58.7116 7.95007L57.0403 9.97106C57.6923 10.5104 58.3162 11.0829 58.9095 11.686L60.7793 9.84679C60.1227 9.17975 59.4326 8.54679 58.7116 7.95007Z" fill="#F03A31"/>
<path d="M54.0714 4.82373L52.824 7.1316C53.5732 7.53635 54.3065 7.97947 55.0032 8.44816L56.4672 6.27094C55.7004 5.75619 54.8949 5.26947 54.0714 4.82373Z" fill="#F03A31"/>
<path d="M48.9306 2.64783L48.1365 5.14783C48.9535 5.40652 49.7573 5.70373 50.5263 6.03029L51.5522 3.61734C50.7076 3.25734 49.8252 2.93209 48.9306 2.64783Z" fill="#F03A31"/>
<path d="M43.4893 1.44385L43.1537 4.04631C43.9996 4.15516 44.8462 4.30254 45.6698 4.48565L46.2372 1.92418C45.3375 1.72565 44.4128 1.56418 43.4893 1.44385Z" fill="#F03A31"/>
<path d="M5.24588 71.9523H2.62292V74.5752H5.24588V71.9523Z" fill="#F03A31"/>
<path d="M5.24588 77.1982H2.62292V79.8212H5.24588V77.1982Z" fill="#F03A31"/>
<path d="M7.86886 74.5752H5.24591V77.1981H7.86886V74.5752Z" fill="#F03A31"/>
<path d="M2.62295 74.5752H0V77.1981H2.62295V74.5752Z" fill="#F03A31"/>
<path d="M77.377 1.13257H74.7541V3.75552H77.377V1.13257Z" fill="#F03A31"/>
<path d="M77.377 6.37854H74.7541V9.00149H77.377V6.37854Z" fill="#F03A31"/>
<path d="M80 3.75562H77.3771V6.37856H80V3.75562Z" fill="#F03A31"/>
<path d="M74.7541 3.75562H72.1312V6.37856H74.7541V3.75562Z" fill="#F03A31"/>
</svg>
