<svg width="80" height="81" viewBox="0 0 80 81" fill="none" xmlns="http://www.w3.org/2000/svg">
<path d="M18.6666 53.1667C14.2546 53.1667 10.6666 56.7547 10.6666 61.1667C10.6666 65.5788 14.2546 69.1668 18.6666 69.1668C23.0787 69.1668 26.6666 65.5788 26.6666 61.1667C26.6666 56.7547 23.0785 53.1667 18.6666 53.1667ZM18.6666 66.5C15.7252 66.5 13.3334 64.108 13.3334 61.1667C13.3334 58.2253 15.7254 55.8335 18.6666 55.8335C21.6079 55.8335 23.9999 58.2255 23.9999 61.1667C23.9999 64.108 21.6079 66.5 18.6666 66.5Z" fill="#F03A31"/>
<path d="M64 53.1667C59.5879 53.1667 56 56.7547 56 61.1667C56 65.5788 59.5879 69.1668 64 69.1668C68.412 69.1668 72 65.5788 72 61.1667C72 56.7547 68.412 53.1667 64 53.1667ZM64 66.5C61.0586 66.5 58.6667 64.108 58.6667 61.1667C58.6667 58.2253 61.0587 55.8335 64 55.8335C66.9414 55.8335 69.3332 58.2255 69.3332 61.1667C69.3332 64.108 66.9414 66.5 64 66.5Z" fill="#F03A31"/>
<path d="M79.788 45.7788L67.788 27.112C67.5427 26.7306 67.12 26.5 66.6666 26.5H52C51.2627 26.5 50.6667 27.0973 50.6667 27.8333V61.1666C50.6667 61.9039 51.2627 62.4998 52 62.4998H57.3333V59.8331H53.3333V29.1667H65.9386L77.3333 46.892V59.8334H70.6666V62.5H78.6666C79.4039 62.5 79.9999 61.9041 79.9999 61.1667V46.5C80 46.2453 79.9268 45.9933 79.788 45.7788Z" fill="#F03A31"/>
<path d="M58.6667 43.8334V34.5001H69.3334V31.8334H57.3334C56.5961 31.8334 56.0002 32.4307 56.0002 33.1667V45.1667C56.0002 45.904 56.5961 46.4999 57.3334 46.4999H77.3334V43.8332H58.6667V43.8334Z" fill="#F03A31"/>
<path d="M52 17.1667H1.33328C0.597344 17.1667 0 17.7641 0 18.5V61.1667C0 61.9041 0.597344 62.5 1.33328 62.5H12V59.8333H2.66672V19.8333H50.6667V59.8333H25.3333V62.5H52C52.7373 62.5 53.3333 61.9041 53.3333 61.1667V18.5C53.3333 17.7641 52.7373 17.1667 52 17.1667Z" fill="#F03A31"/>
<path d="M9.33332 54.5H1.33332V57.1667H9.33332V54.5Z" fill="#F03A31"/>
<path d="M50.6667 54.5H28V57.1667H50.6667V54.5Z" fill="#F03A31"/>
<path d="M78.6666 54.5H73.3333V57.1667H78.6666V54.5Z" fill="#F03A31"/>
<path d="M52 22.5H5.33323V25.1667H52V22.5Z" fill="#F03A31"/>
<path d="M20 59.8333H17.3333V62.5H20V59.8333Z" fill="#F03A31"/>
<path d="M65.3334 59.8333H62.6667V62.5H65.3334V59.8333Z" fill="#F03A31"/>
<path d="M24 11.8333H5.33323V14.5H24V11.8333Z" fill="#F03A31"/>
<path d="M2.66672 11.8333H0V14.5H2.66672V11.8333Z" fill="#F03A31"/>
</svg>
