<svg width="179" height="26" viewBox="0 0 179 26" fill="none" xmlns="http://www.w3.org/2000/svg">
<g clip-path="url(#clip0)">
<path d="M15.63 4.99999L13.17 7.69999C12.77 7.15999 12.2 6.71999 11.46 6.37999C10.74 6.03999 10.01 5.86999 9.27 5.86999C8.29 5.86999 7.42 6.11999 6.66 6.61999C5.9 7.09999 5.52 7.81999 5.52 8.77999C5.52 9.25999 5.6 9.66999 5.76 10.01C5.94 10.33 6.24 10.62 6.66 10.88C7.1 11.14 7.51 11.34 7.89 11.48C8.27 11.62 8.83 11.81 9.57 12.05C10.27 12.27 10.84 12.46 11.28 12.62C11.74 12.78 12.28 13.04 12.9 13.4C13.54 13.74 14.04 14.11 14.4 14.51C14.78 14.91 15.1 15.44 15.36 16.1C15.64 16.74 15.78 17.46 15.78 18.26C15.78 20.44 15.04 22.12 13.56 23.3C12.1 24.46 10.26 25.04 8.04 25.04C6.62 25.04 5.25 24.78 3.93 24.26C2.63 23.72 1.57 22.97 0.75 22.01L3.45 19.49C3.97 20.19 4.66 20.76 5.52 21.2C6.38 21.62 7.24 21.83 8.1 21.83C9.12 21.83 10.01 21.57 10.77 21.05C11.55 20.53 11.94 19.74 11.94 18.68C11.94 18.32 11.89 18 11.79 17.72C11.69 17.42 11.5 17.15 11.22 16.91C10.96 16.67 10.73 16.48 10.53 16.34C10.33 16.18 9.97 16.01 9.45 15.83C8.95 15.63 8.59 15.49 8.37 15.41C8.15 15.33 7.71 15.19 7.05 14.99C6.29 14.75 5.64 14.5 5.1 14.24C4.56 13.98 4 13.63 3.42 13.19C2.86 12.73 2.43 12.15 2.13 11.45C1.83 10.73 1.68 9.89999 1.68 8.95999C1.68 6.93999 2.44 5.39999 3.96 4.33999C5.5 3.25999 7.33 2.71999 9.45 2.71999C10.57 2.71999 11.68 2.91999 12.78 3.31999C13.9 3.69999 14.85 4.25999 15.63 4.99999ZM28.3266 24.5V22.67H28.2366C27.8766 23.31 27.2866 23.84 26.4666 24.26C25.6666 24.66 24.7666 24.86 23.7666 24.86C22.3866 24.86 21.1366 24.5 20.0166 23.78C18.9166 23.04 18.3666 21.91 18.3666 20.39C18.3666 19.57 18.5666 18.86 18.9666 18.26C19.3866 17.64 19.9066 17.16 20.5266 16.82C21.1466 16.48 21.9166 16.21 22.8366 16.01C23.7766 15.79 24.6566 15.65 25.4766 15.59C26.3166 15.53 27.2466 15.5 28.2666 15.5V15.14C28.2666 14.3 27.9566 13.65 27.3366 13.19C26.7166 12.73 25.9266 12.5 24.9666 12.5C23.4466 12.5 22.1366 13.05 21.0366 14.15L19.1766 11.96C20.8166 10.44 22.8466 9.67999 25.2666 9.67999C26.5066 9.67999 27.5566 9.85999 28.4166 10.22C29.2966 10.56 29.9666 11.04 30.4266 11.66C30.8866 12.26 31.2066 12.9 31.3866 13.58C31.5866 14.24 31.6866 14.96 31.6866 15.74V24.5H28.3266ZM28.2666 18.44V17.93H27.4566C23.7966 17.93 21.9666 18.73 21.9666 20.33C21.9666 20.97 22.2066 21.43 22.6866 21.71C23.1866 21.99 23.7866 22.13 24.4866 22.13C25.7066 22.13 26.6366 21.81 27.2766 21.17C27.9366 20.51 28.2666 19.6 28.2666 18.44ZM36.4507 24.5V12.98H33.7207V10.1H36.4507V7.96999C36.4507 6.02999 36.9007 4.45999 37.8007 3.25999C38.7007 2.05999 40.1907 1.45999 42.2707 1.45999C42.9907 1.45999 43.6007 1.52999 44.1007 1.66999L43.8607 4.72999C43.4007 4.58999 42.9407 4.51999 42.4807 4.51999C40.8607 4.51999 40.0507 5.59999 40.0507 7.75999V10.1H43.3807V12.98H40.0507V24.5H36.4507ZM48.3673 15.86H55.7473C55.7473 14.86 55.4573 14.03 54.8773 13.37C54.2973 12.71 53.4573 12.38 52.3573 12.38C51.2973 12.38 50.3873 12.71 49.6273 13.37C48.8673 14.03 48.4473 14.86 48.3673 15.86ZM59.3473 17.48C59.3473 17.9 59.3373 18.22 59.3173 18.44H48.3673C48.4473 19.44 48.8873 20.28 49.6873 20.96C50.4873 21.64 51.4173 21.98 52.4773 21.98C54.1373 21.98 55.4073 21.36 56.2873 20.12L58.6873 22.04C57.2673 23.96 55.2073 24.92 52.5073 24.92C50.2473 24.92 48.3873 24.24 46.9273 22.88C45.4873 21.52 44.7673 19.69 44.7673 17.39C44.7673 15.09 45.4873 13.23 46.9273 11.81C48.3673 10.39 50.1873 9.67999 52.3873 9.67999C54.4673 9.67999 56.1473 10.35 57.4273 11.69C58.7073 13.03 59.3473 14.96 59.3473 17.48Z" fill="#262026"/>
<path d="M81.2238 5.96L78.3438 8.24C77.8238 7.52 77.1138 6.98 76.2138 6.62C75.3338 6.24 74.4338 6.05 73.5138 6.05C71.3538 6.05 69.5838 6.79 68.2038 8.27C66.8438 9.75 66.1638 11.6 66.1638 13.82C66.1638 16.14 66.8138 18.03 68.1138 19.49C69.4338 20.93 71.1838 21.65 73.3638 21.65C75.6038 21.65 77.3238 20.83 78.5238 19.19L81.5538 21.32C79.5738 23.8 76.8338 25.04 73.3338 25.04C70.0138 25.04 67.2938 24 65.1738 21.92C63.0538 19.82 61.9938 17.12 61.9938 13.82C61.9938 10.48 63.0738 7.8 65.2338 5.78C67.4138 3.74 70.1738 2.72 73.5138 2.72C74.9938 2.72 76.4438 3 77.8638 3.56C79.3038 4.1 80.4238 4.9 81.2238 5.96ZM82.5309 17.24C82.5309 15.02 83.2809 13.21 84.7809 11.81C86.2809 10.39 88.1409 9.68 90.3609 9.68C92.5809 9.68 94.4409 10.39 95.9409 11.81C97.4409 13.21 98.1909 15.02 98.1909 17.24C98.1909 19.48 97.4309 21.32 95.9109 22.76C94.4109 24.2 92.5609 24.92 90.3609 24.92C88.1609 24.92 86.3009 24.2 84.7809 22.76C83.2809 21.32 82.5309 19.48 82.5309 17.24ZM87.2709 14C86.5509 14.92 86.1909 16 86.1909 17.24C86.1909 18.48 86.5509 19.57 87.2709 20.51C87.9909 21.45 89.0209 21.92 90.3609 21.92C91.7009 21.92 92.7309 21.45 93.4509 20.51C94.1709 19.57 94.5309 18.48 94.5309 17.24C94.5309 16 94.1709 14.92 93.4509 14C92.7309 13.08 91.7009 12.62 90.3609 12.62C89.0209 12.62 87.9909 13.08 87.2709 14ZM101.681 24.5V10.1H105.101V12.41H105.161C105.501 11.65 106.071 11.01 106.871 10.49C107.691 9.95 108.611 9.68 109.631 9.68C111.391 9.68 112.711 10.25 113.591 11.39C114.491 12.51 114.941 13.88 114.941 15.5V24.5H111.341V16.52C111.341 13.96 110.441 12.68 108.641 12.68C107.561 12.68 106.731 13.07 106.151 13.85C105.571 14.61 105.281 15.52 105.281 16.58V24.5H101.681ZM119.592 12.98H117.072V10.1H119.592V5.93H123.132V10.1H126.732V12.98H123.132V19.67C123.132 20.39 123.262 20.94 123.522 21.32C123.782 21.7 124.282 21.89 125.022 21.89C125.642 21.89 126.152 21.79 126.552 21.59L126.672 24.41C125.992 24.67 125.192 24.8 124.272 24.8C122.512 24.8 121.292 24.35 120.612 23.45C119.932 22.53 119.592 21.28 119.592 19.7V12.98ZM129.338 24.5V10.1H132.788V12.5H132.848C133.248 11.64 133.818 10.96 134.558 10.46C135.298 9.94 136.128 9.68 137.048 9.68C137.388 9.68 137.678 9.71 137.918 9.77V13.07C137.518 12.97 137.148 12.92 136.808 12.92C136.188 12.92 135.638 13.02 135.158 13.22C134.678 13.42 134.298 13.67 134.018 13.97C133.758 14.27 133.538 14.61 133.358 14.99C133.198 15.35 133.088 15.68 133.028 15.98C132.968 16.28 132.938 16.55 132.938 16.79V24.5H129.338ZM148.825 24.5V22.67H148.735C148.375 23.31 147.785 23.84 146.965 24.26C146.165 24.66 145.265 24.86 144.265 24.86C142.885 24.86 141.635 24.5 140.515 23.78C139.415 23.04 138.865 21.91 138.865 20.39C138.865 19.57 139.065 18.86 139.465 18.26C139.885 17.64 140.405 17.16 141.025 16.82C141.645 16.48 142.415 16.21 143.335 16.01C144.275 15.79 145.155 15.65 145.975 15.59C146.815 15.53 147.745 15.5 148.765 15.5V15.14C148.765 14.3 148.455 13.65 147.835 13.19C147.215 12.73 146.425 12.5 145.465 12.5C143.945 12.5 142.635 13.05 141.535 14.15L139.675 11.96C141.315 10.44 143.345 9.68 145.765 9.68C147.005 9.68 148.055 9.86 148.915 10.22C149.795 10.56 150.465 11.04 150.925 11.66C151.385 12.26 151.705 12.9 151.885 13.58C152.085 14.24 152.185 14.96 152.185 15.74V24.5H148.825ZM148.765 18.44V17.93H147.955C144.295 17.93 142.465 18.73 142.465 20.33C142.465 20.97 142.705 21.43 143.185 21.71C143.685 21.99 144.285 22.13 144.985 22.13C146.205 22.13 147.135 21.81 147.775 21.17C148.435 20.51 148.765 19.6 148.765 18.44ZM168.679 11.93L166.219 14.09C165.939 13.69 165.519 13.36 164.959 13.1C164.399 12.82 163.829 12.68 163.249 12.68C162.009 12.68 161.039 13.15 160.339 14.09C159.639 15.01 159.289 16.08 159.289 17.3C159.289 18.54 159.649 19.62 160.369 20.54C161.089 21.46 162.089 21.92 163.369 21.92C164.689 21.92 165.699 21.49 166.399 20.63L168.649 22.91C167.409 24.25 165.639 24.92 163.339 24.92C161.139 24.92 159.289 24.23 157.789 22.85C156.289 21.47 155.539 19.62 155.539 17.3C155.539 15.02 156.279 13.18 157.759 11.78C159.239 10.38 161.069 9.68 163.249 9.68C164.309 9.68 165.339 9.88 166.339 10.28C167.339 10.68 168.119 11.23 168.679 11.93ZM171.477 12.98H168.957V10.1H171.477V5.93H175.017V10.1H178.617V12.98H175.017V19.67C175.017 20.39 175.147 20.94 175.407 21.32C175.667 21.7 176.167 21.89 176.907 21.89C177.527 21.89 178.037 21.79 178.437 21.59L178.557 24.41C177.877 24.67 177.077 24.8 176.157 24.8C174.397 24.8 173.177 24.35 172.497 23.45C171.817 22.53 171.477 21.28 171.477 19.7V12.98Z" fill="#01C77F"/>
</g>
<defs>
<clipPath id="clip0">
<rect y="0.5" width="179" height="25" fill="white"/>
</clipPath>
</defs>
</svg>
